<svg width="545" height="736" viewBox="0 0 545 736" fill="none" xmlns="http://www.w3.org/2000/svg">
<g clip-path="url(#clip0)">
<path d="M223.87 22.8858V14.7507H222.556C220.157 14.7507 218.264 14.0884 216.876 12.7639C215.499 11.4393 214.811 9.66107 214.811 7.42913C214.811 5.20763 215.504 3.43459 216.892 2.11003C218.279 0.775041 220.172 0.107544 222.572 0.107544H226.781V22.8858H223.87ZM239.549 22.8858V14.7507H238.235C235.836 14.7507 233.941 14.0884 232.554 12.7639C231.178 11.4393 230.489 9.66107 230.489 7.42913C230.489 5.20763 231.183 3.43459 232.57 2.11003C233.957 0.775041 235.85 0.107544 238.251 0.107544H242.458V22.8858H239.549ZM255.228 22.8858V14.7507H253.912C251.513 14.7507 249.62 14.0884 248.233 12.7639C246.855 11.4393 246.169 9.66107 246.169 7.42913C246.169 5.20763 246.862 3.43459 248.249 2.11003C249.636 0.775041 251.529 0.107544 253.928 0.107544H258.138V22.8858H255.228ZM270.905 22.8858V14.7507H269.592C267.193 14.7507 265.3 14.0884 263.91 12.7639C262.535 11.4393 261.846 9.66107 261.846 7.42913C261.846 5.20763 262.539 3.43459 263.926 2.11003C265.313 0.775041 267.209 0.107544 269.608 0.107544H273.817V22.8858H270.905ZM286.585 22.8858V14.7507H285.271C282.87 14.7507 280.977 14.0884 279.59 12.7639C278.214 11.4393 277.525 9.66107 277.525 7.42913C277.525 5.20763 278.219 3.43459 279.606 2.11003C280.993 0.775041 282.886 0.107544 285.285 0.107544H289.494V22.8858H286.585ZM302.262 22.8858V14.7507H300.948C298.549 14.7507 296.656 14.0884 295.269 12.7639C293.891 11.4393 293.202 9.66107 293.202 7.42913C293.202 5.20763 293.896 3.43459 295.285 2.11003C296.672 0.775041 298.565 0.107544 300.964 0.107544H305.173V22.8858H302.262ZM317.941 22.8858V14.7507H316.627C314.228 14.7507 312.333 14.0884 310.946 12.7639C309.57 11.4393 308.881 9.66107 308.881 7.42913C308.881 5.20763 309.575 3.43459 310.962 2.11003C312.349 0.775041 314.242 0.107544 316.643 0.107544H320.85V22.8858H317.941ZM333.62 22.8858V14.7507H332.304C329.905 14.7507 328.012 14.0884 326.625 12.7639C325.247 11.4393 324.561 9.66107 324.561 7.42913C324.561 5.20763 325.254 3.43459 326.641 2.11003C328.029 0.775041 329.921 0.107544 332.32 0.107544H336.53V22.8858H333.62ZM349.297 22.8858V14.7507H347.984C345.585 14.7507 343.692 14.0884 342.305 12.7639C340.927 11.4393 340.238 9.66107 340.238 7.42913C340.238 5.20763 340.931 3.43459 342.318 2.11003C343.706 0.775041 345.601 0.107544 348 0.107544H352.209V22.8858H349.297ZM364.977 22.8858V14.7507H363.663C361.262 14.7507 359.369 14.0884 357.982 12.7639C356.606 11.4393 355.917 9.66107 355.917 7.42913C355.917 5.20763 356.611 3.43459 357.998 2.11003C359.385 0.775041 361.278 0.107544 363.677 0.107544H367.886V22.8858H364.977ZM160.28 60.4182V52.283H158.966C156.567 52.283 154.673 51.6207 153.286 50.2961C151.909 48.9717 151.221 47.1935 151.221 44.9615C151.221 42.74 151.914 40.967 153.302 39.6424C154.689 38.3073 156.582 37.6399 158.982 37.6399H163.191V60.4182H160.28ZM175.959 60.4182V52.283H174.644C172.245 52.283 170.352 51.6207 168.964 50.2961C167.587 48.9717 166.899 47.1935 166.899 44.9615C166.899 42.74 167.593 40.967 168.98 39.6424C170.367 38.3073 172.261 37.6399 174.66 37.6399H178.869V60.4182H175.959ZM191.637 60.4182V52.283H190.323C187.924 52.283 186.03 51.6207 184.643 50.2961C183.266 48.9717 182.578 47.1935 182.578 44.9615C182.578 42.74 183.271 40.967 184.658 39.6424C186.046 38.3073 187.939 37.6399 190.339 37.6399H194.548V60.4182H191.637ZM207.316 60.4182V52.283H206.001C203.602 52.283 201.709 51.6207 200.321 50.2961C198.944 48.9717 198.256 47.1935 198.256 44.9615C198.256 42.74 198.95 40.967 200.337 39.6424C201.724 38.3073 203.618 37.6399 206.017 37.6399H210.226V60.4182H207.316ZM222.994 60.4182V52.283H221.68C219.281 52.283 217.387 51.6207 216 50.2961C214.623 48.9717 213.934 47.1935 213.934 44.9615C213.934 42.74 214.628 40.967 216.016 39.6424C217.403 38.3073 219.296 37.6399 221.695 37.6399H225.905V60.4182H222.994ZM242.96 62.7804H228.627V60.4182H242.96V62.7804ZM257.419 62.7804H243.085V60.4182H257.419V62.7804ZM271.876 62.7804H257.542V60.4182H271.876V62.7804ZM286.333 62.7804H272.002V60.4182H286.333V62.7804ZM300.792 62.7804H286.459V60.4182H300.792V62.7804ZM315.249 62.7804H300.916V60.4182H315.249V62.7804ZM329.709 62.7804H315.375V60.4182H329.709V62.7804ZM344.166 62.7804H329.832V60.4182H344.166V62.7804ZM358.623 62.7804H344.292V60.4182H358.623V62.7804ZM368.795 60.4182V52.283H367.481C365.08 52.283 363.187 51.6207 361.8 50.2961C360.424 48.9717 359.735 47.1935 359.735 44.9615C359.735 42.74 360.429 40.967 361.816 39.6424C363.203 38.3073 365.096 37.6399 367.495 37.6399H371.704V60.4182H368.795ZM384.472 60.4182V52.283H383.158C380.759 52.283 378.866 51.6207 377.479 50.2961C376.101 48.9717 375.412 47.1935 375.412 44.9615C375.412 42.74 376.106 40.967 377.495 39.6424C378.882 38.3073 380.775 37.6399 383.174 37.6399H387.383V60.4182H384.472ZM400.151 60.4182V52.283H398.837C396.438 52.283 394.543 51.6207 393.156 50.2961C391.78 48.9717 391.091 47.1935 391.091 44.9615C391.091 42.74 391.785 40.967 393.172 39.6424C394.559 38.3073 396.452 37.6399 398.853 37.6399H403.06V60.4182H400.151ZM415.831 60.4182V52.283H414.514C412.116 52.283 410.223 51.6207 408.835 50.2961C407.458 48.9717 406.771 47.1935 406.771 44.9615C406.771 42.74 407.464 40.967 408.851 39.6424C410.239 38.3073 412.132 37.6399 414.53 37.6399H418.74V60.4182H415.831ZM136.434 97.9505V89.8154H135.12C132.721 89.8154 130.827 89.1531 129.44 87.8285C128.063 86.5041 127.374 84.7259 127.374 82.4938C127.374 80.2723 128.068 78.4994 129.455 77.1748C130.843 75.8396 132.736 75.1723 135.135 75.1723H139.345V97.9505H136.434ZM152.113 97.9505V89.8154H150.798C148.399 89.8154 146.506 89.1531 145.118 87.8285C143.741 86.5041 143.053 84.7259 143.053 82.4938C143.053 80.2723 143.746 78.4994 145.134 77.1748C146.521 75.8396 148.414 75.1723 150.814 75.1723H155.023V97.9505H152.113ZM167.791 97.9505V89.8154H166.477C164.077 89.8154 162.184 89.1531 160.797 87.8285C159.42 86.5041 158.731 84.7259 158.731 82.4938C158.731 80.2723 159.425 78.4994 160.812 77.1748C162.2 75.8396 164.093 75.1723 166.492 75.1723H170.701V97.9505H167.791ZM187.757 100.313H173.424V97.9505H187.757V100.313ZM202.215 100.313H187.882V97.9505H202.215V100.313ZM216.673 100.313H202.34V97.9505H216.673V100.313ZM231.13 100.313H216.798V97.9505H231.13V100.313ZM245.59 100.313H231.256V97.9505H245.59V100.313ZM260.047 100.313H245.713V97.9505H260.047V100.313ZM274.504 100.313H260.172V97.9505H274.504V100.313ZM288.963 100.313H274.63V97.9505H288.963V100.313ZM303.42 100.313H289.087V97.9505H303.42V100.313ZM317.879 100.313H303.546V97.9505H317.879V100.313ZM332.336 100.313H318.003V97.9505H332.336V100.313ZM346.793 100.313H332.462V97.9505H346.793V100.313ZM361.253 100.313H346.919V97.9505H361.253V100.313ZM375.71 100.313H361.379V97.9505H375.71V100.313ZM390.169 100.313H375.836V97.9505H390.169V100.313ZM400.339 97.9505V89.8154H399.025C396.626 89.8154 394.731 89.1531 393.344 87.8285C391.968 86.5041 391.279 84.7259 391.279 82.4938C391.279 80.2723 391.973 78.4994 393.36 77.1748C394.747 75.8396 396.64 75.1723 399.041 75.1723H403.248V97.9505H400.339ZM416.018 97.9505V89.8154H414.702C412.303 89.8154 410.41 89.1531 409.023 87.8285C407.645 86.5041 406.959 84.7259 406.959 82.4938C406.959 80.2723 407.652 78.4994 409.039 77.1748C410.426 75.8396 412.319 75.1723 414.718 75.1723H418.927V97.9505H416.018ZM431.695 97.9505V89.8154H430.381C427.983 89.8154 426.09 89.1531 424.702 87.8285C423.325 86.5041 422.636 84.7259 422.636 82.4938C422.636 80.2723 423.329 78.4994 424.716 77.1748C426.106 75.8396 427.999 75.1723 430.397 75.1723H434.607V97.9505H431.695ZM120.537 135.483V127.348H119.222C116.823 127.348 114.93 126.685 113.542 125.361C112.165 124.036 111.477 122.258 111.477 120.026C111.477 117.805 112.171 116.032 113.558 114.707C114.945 113.372 116.839 112.705 119.238 112.705H123.447V135.483H120.537ZM136.215 135.483V127.348H134.901C132.501 127.348 130.608 126.685 129.221 125.361C127.844 124.036 127.155 122.258 127.155 120.026C127.155 117.805 127.849 116.032 129.236 114.707C130.624 113.372 132.517 112.705 134.916 112.705H139.125V135.483H136.215ZM156.181 137.845H141.848V135.483H156.181V137.845ZM170.639 137.845H156.306V135.483H170.639V137.845ZM185.097 137.845H170.764V135.483H185.097V137.845ZM199.555 137.845H185.222V135.483H199.555V137.845ZM214.013 137.845H199.68V135.483H214.013V137.845ZM228.471 137.845H214.138V135.483H228.471V137.845ZM242.927 137.845H228.596V135.483H242.927V137.845ZM257.387 137.845H243.053V135.483H257.387V137.845ZM271.844 137.845H257.513V135.483H271.844V137.845ZM286.303 137.845H271.97V135.483H286.303V137.845ZM300.76 137.845H286.427V135.483H300.76V137.845ZM315.217 137.845H300.886V135.483H315.217V137.845ZM329.677 137.845H315.343V135.483H329.677V137.845ZM344.134 137.845H329.802V135.483H344.134V137.845ZM358.593 137.845H344.259V135.483H358.593V137.845ZM373.05 137.845H358.717V135.483H373.05V137.845ZM387.509 137.845H373.176V135.483H387.509V137.845ZM401.966 137.845H387.633V135.483H401.966V137.845ZM416.423 137.845H402.092V135.483H416.423V137.845ZM426.595 135.483V127.348H425.279C422.88 127.348 420.988 126.685 419.6 125.361C418.222 124.036 417.536 122.258 417.536 120.026C417.536 117.805 418.229 116.032 419.616 114.707C421.004 113.372 422.897 112.705 425.295 112.705H429.505V135.483H426.595ZM442.272 135.483V127.348H440.959C438.56 127.348 436.667 126.685 435.28 125.361C433.902 124.036 433.213 122.258 433.213 120.026C433.213 117.805 433.906 116.032 435.293 114.707C436.683 113.372 438.576 112.705 440.975 112.705H445.184V135.483H442.272ZM120.537 173.015V164.88H119.222C116.823 164.88 114.93 164.218 113.542 162.893C112.165 161.569 111.477 159.791 111.477 157.559C111.477 155.337 112.171 153.564 113.558 152.239C114.945 150.904 116.839 150.237 119.238 150.237H123.447V173.015H120.537ZM136.215 173.015V164.88H134.901C132.501 164.88 130.608 164.218 129.221 162.893C127.844 161.569 127.155 159.791 127.155 157.559C127.155 155.337 127.849 153.564 129.236 152.239C130.624 150.904 132.517 150.237 134.916 150.237H139.125V173.015H136.215ZM156.181 175.377H141.848V173.015H156.181V175.377ZM170.639 175.377H156.306V173.015H170.639V175.377ZM185.097 175.377H170.764V173.015H185.097V175.377ZM199.555 175.377H185.222V173.015H199.555V175.377ZM214.013 175.377H199.68V173.015H214.013V175.377ZM228.471 175.377H214.138V173.015H228.471V175.377ZM242.927 175.377H228.596V173.015H242.927V175.377ZM257.387 175.377H243.053V173.015H257.387V175.377ZM271.844 175.377H257.513V173.015H271.844V175.377ZM286.303 175.377H271.97V173.015H286.303V175.377ZM300.76 175.377H286.427V173.015H300.76V175.377ZM315.217 175.377H300.886V173.015H315.217V175.377ZM329.677 175.377H315.343V173.015H329.677V175.377ZM344.134 175.377H329.802V173.015H344.134V175.377ZM358.593 175.377H344.259V173.015H358.593V175.377ZM373.05 175.377H358.717V173.015H373.05V175.377ZM387.509 175.377H373.176V173.015H387.509V175.377ZM401.966 175.377H387.633V173.015H401.966V175.377ZM416.423 175.377H402.092V173.015H416.423V175.377ZM430.883 175.377H416.549V173.015H430.883V175.377ZM445.34 175.377H431.006V173.015H445.34V175.377ZM455.512 173.015V164.88H454.196C451.797 164.88 449.904 164.218 448.517 162.893C447.139 161.569 446.452 159.791 446.452 157.559C446.452 155.337 447.146 153.564 448.533 152.239C449.92 150.904 451.813 150.237 454.212 150.237H458.421V173.015H455.512ZM112.588 210.548V202.412H111.273C108.874 202.412 106.981 201.75 105.593 200.425C104.217 199.101 103.528 197.323 103.528 195.091C103.528 192.869 104.222 191.096 105.609 189.772C106.997 188.437 108.89 187.769 111.289 187.769H115.498V210.548H112.588ZM128.266 210.548V202.412H126.952C124.553 202.412 122.659 201.75 121.272 200.425C119.895 199.101 119.207 197.323 119.207 195.091C119.207 192.869 119.9 191.096 121.288 189.772C122.675 188.437 124.568 187.769 126.967 187.769H131.177V210.548H128.266ZM148.232 212.91H133.899V210.548H148.232V212.91ZM158.403 210.548V202.412H157.088C154.689 202.412 152.796 201.75 151.408 200.425C150.031 199.101 149.343 197.323 149.343 195.091C149.343 192.869 150.037 191.096 151.424 189.772C152.811 188.437 154.705 187.769 157.104 187.769H161.313V210.548H158.403ZM178.368 212.91H164.036V210.548H178.368V212.91ZM192.826 212.91H178.494V210.548H192.826V212.91ZM207.284 212.91H192.952V210.548H207.284V212.91ZM221.742 212.91H207.41V210.548H221.742V212.91ZM236.2 212.91H221.867V210.548H236.2V212.91ZM250.657 212.91H236.326V210.548H250.657V212.91ZM265.117 212.91H250.783V210.548H265.117V212.91ZM279.574 212.91H265.242V210.548H279.574V212.91ZM294.033 212.91H279.7V210.548H294.033V212.91ZM308.49 212.91H294.157V210.548H308.49V212.91ZM322.947 212.91H308.616V210.548H322.947V212.91ZM337.406 212.91H323.073V210.548H337.406V212.91ZM351.863 212.91H337.532V210.548H351.863V212.91ZM366.323 212.91H351.989V210.548H366.323V212.91ZM380.78 212.91H366.446V210.548H380.78V212.91ZM395.237 212.91H380.906V210.548H395.237V212.91ZM409.696 212.91H395.363V210.548H409.696V212.91ZM427.815 210.548V202.412H426.502C424.103 202.412 422.208 201.75 420.82 200.425C419.445 199.101 418.756 197.323 418.756 195.091C418.756 192.869 419.449 191.096 420.836 189.772C422.224 188.437 424.117 187.769 426.518 187.769H430.725V210.548H427.815ZM443.495 210.548V202.412H442.179C439.78 202.412 437.887 201.75 436.5 200.425C435.122 199.101 434.435 197.323 434.435 195.091C434.435 192.869 435.129 191.096 436.516 189.772C437.903 188.437 439.796 187.769 442.195 187.769H446.404V210.548H443.495ZM459.172 210.548V202.412H457.858C455.459 202.412 453.566 201.75 452.177 200.425C450.801 199.101 450.112 197.323 450.112 195.091C450.112 192.869 450.806 191.096 452.193 189.772C453.58 188.437 455.475 187.769 457.874 187.769H462.083V210.548H459.172ZM112.588 248.08V239.944H111.273C108.874 239.944 106.981 239.283 105.593 237.958C104.217 236.633 103.528 234.854 103.528 232.623C103.528 230.401 104.222 228.629 105.609 227.304C106.997 225.969 108.89 225.302 111.289 225.302H115.498V248.08H112.588ZM128.266 248.08V239.944H126.952C124.553 239.944 122.659 239.283 121.272 237.958C119.895 236.633 119.207 234.854 119.207 232.623C119.207 230.401 119.9 228.629 121.288 227.304C122.675 225.969 124.568 225.302 126.967 225.302H131.177V248.08H128.266ZM148.232 250.442H133.899V248.08H148.232V250.442ZM158.403 248.08V239.944H157.088C154.689 239.944 152.796 239.283 151.408 237.958C150.031 236.633 149.343 234.854 149.343 232.623C149.343 230.401 150.037 228.629 151.424 227.304C152.811 225.969 154.705 225.302 157.104 225.302H161.313V248.08H158.403ZM174.081 248.08V239.944H172.767C170.367 239.944 168.474 239.283 167.087 237.958C165.71 236.633 165.021 234.854 165.021 232.623C165.021 230.401 165.715 228.629 167.102 227.304C168.49 225.969 170.383 225.302 172.782 225.302H176.991V248.08H174.081ZM194.047 250.442H179.714V248.08H194.047V250.442ZM208.505 250.442H194.172V248.08H208.505V250.442ZM222.963 250.442H208.63V248.08H222.963V250.442ZM237.42 250.442H223.088V248.08H237.42V250.442ZM251.88 250.442H237.546V248.08H251.88V250.442ZM266.337 250.442H252.003V248.08H266.337V250.442ZM280.794 250.442H266.463V248.08H280.794V250.442ZM295.253 250.442H280.92V248.08H295.253V250.442ZM309.71 250.442H295.379V248.08H309.71V250.442ZM324.169 250.442H309.836V248.08H324.169V250.442ZM338.626 250.442H324.293V248.08H338.626V250.442ZM353.083 250.442H338.752V248.08H353.083V250.442ZM367.543 250.442H353.209V248.08H367.543V250.442ZM382 250.442H367.669V248.08H382V250.442ZM396.459 250.442H382.126V248.08H396.459V250.442ZM406.629 248.08V239.944H405.315C402.916 239.944 401.023 239.283 399.634 237.958C398.258 236.633 397.569 234.854 397.569 232.623C397.569 230.401 398.263 228.629 399.65 227.304C401.037 225.969 402.93 225.302 405.331 225.302H409.54V248.08H406.629ZM422.308 248.08V239.944H420.992C418.593 239.944 416.7 239.283 415.313 237.958C413.935 236.633 413.249 234.854 413.249 232.623C413.249 230.401 413.942 228.629 415.329 227.304C416.716 225.969 418.609 225.302 421.008 225.302H425.217V248.08H422.308ZM442.272 250.442H427.941V248.08H442.272V250.442ZM452.445 248.08V239.944H451.128C448.73 239.944 446.837 239.283 445.45 237.958C444.072 236.633 443.385 234.854 443.385 232.623C443.385 230.401 444.078 228.629 445.466 227.304C446.853 225.969 448.746 225.302 451.144 225.302H455.354V248.08H452.445ZM120.537 285.612V277.476H119.222C116.823 277.476 114.93 276.815 113.542 275.49C112.165 274.165 111.477 272.387 111.477 270.155C111.477 267.933 112.171 266.162 113.558 264.837C114.945 263.502 116.839 262.834 119.238 262.834H123.447V285.612H120.537ZM136.215 285.612V277.476H134.901C132.501 277.476 130.608 276.815 129.221 275.49C127.844 274.165 127.155 272.387 127.155 270.155C127.155 267.933 127.849 266.162 129.236 264.837C130.624 263.502 132.517 262.834 134.916 262.834H139.125V285.612H136.215ZM156.181 287.974H141.848V285.612H156.181V287.974ZM166.351 285.612V277.476H165.037C162.638 277.476 160.744 276.815 159.357 275.49C157.98 274.165 157.292 272.387 157.292 270.155C157.292 267.933 157.985 266.162 159.373 264.837C160.76 263.502 162.653 262.834 165.053 262.834H169.262V285.612H166.351ZM186.317 287.974H171.984V285.612H186.317V287.974ZM200.775 287.974H186.442V285.612H200.775V287.974ZM210.946 285.612V277.476H209.631C207.232 277.476 205.339 276.815 203.951 275.49C202.575 274.165 201.886 272.387 201.886 270.155C201.886 267.933 202.58 266.162 203.967 264.837C205.355 263.502 207.248 262.834 209.647 262.834H213.856V285.612H210.946ZM226.624 285.612V277.476H225.31C222.911 277.476 221.017 276.815 219.63 275.49C218.253 274.165 217.564 272.387 217.564 270.155C217.564 267.933 218.258 266.162 219.646 264.837C221.033 263.502 222.926 262.834 225.325 262.834H229.535V285.612H226.624ZM242.303 285.612V277.476H240.989C238.59 277.476 236.695 276.815 235.308 275.49C233.932 274.165 233.243 272.387 233.243 270.155C233.243 267.933 233.936 266.162 235.324 264.837C236.711 263.502 238.604 262.834 241.005 262.834H245.214V285.612H242.303ZM262.269 287.974H247.936V285.612H262.269V287.974ZM276.726 287.974H262.393V285.612H276.726V287.974ZM291.183 287.974H276.852V285.612H291.183V287.974ZM305.643 287.974H291.309V285.612H305.643V287.974ZM320.1 287.974H305.768V285.612H320.1V287.974ZM330.272 285.612V277.476H328.956C326.557 277.476 324.664 276.815 323.277 275.49C321.899 274.165 321.212 272.387 321.212 270.155C321.212 267.933 321.906 266.162 323.293 264.837C324.68 263.502 326.573 262.834 328.972 262.834H333.181V285.612H330.272ZM345.949 285.612V277.476H344.635C342.236 277.476 340.343 276.815 338.956 275.49C337.578 274.165 336.889 272.387 336.889 270.155C336.889 267.933 337.583 266.162 338.97 264.837C340.359 263.502 342.252 262.834 344.651 262.834H348.86V285.612H345.949ZM361.628 285.612V277.476H360.314C357.913 277.476 356.02 276.815 354.633 275.49C353.257 274.165 352.568 272.387 352.568 270.155C352.568 267.933 353.262 266.162 354.649 264.837C356.036 263.502 357.929 262.834 360.33 262.834H364.537V285.612H361.628ZM381.595 287.974H367.261V285.612H381.595V287.974ZM396.052 287.974H381.718V285.612H396.052V287.974ZM406.221 285.612V277.476H404.908C402.509 277.476 400.616 276.815 399.229 275.49C397.851 274.165 397.162 272.387 397.162 270.155C397.162 267.933 397.855 266.162 399.242 264.837C400.632 263.502 402.525 262.834 404.924 262.834H409.133V285.612H406.221ZM426.188 287.974H411.855V285.612H426.188V287.974ZM436.358 285.612V277.476H435.044C432.645 277.476 430.752 276.815 429.365 275.49C427.987 274.165 427.298 272.387 427.298 270.155C427.298 267.933 427.992 266.162 429.381 264.837C430.768 263.502 432.661 262.834 435.06 262.834H439.269V285.612H436.358ZM452.037 285.612V277.476H450.723C448.324 277.476 446.429 276.815 445.042 275.49C443.666 274.165 442.978 272.387 442.978 270.155C442.978 267.933 443.671 266.162 445.058 264.837C446.445 263.502 448.338 262.834 450.739 262.834H454.946V285.612H452.037ZM136.434 323.145V315.009H135.12C132.721 315.009 130.827 314.347 129.44 313.022C128.063 311.697 127.374 309.919 127.374 307.688C127.374 305.465 128.068 303.694 129.455 302.369C130.843 301.035 132.736 300.367 135.135 300.367H139.345V323.145H136.434ZM152.113 323.145V315.009H150.798C148.399 315.009 146.506 314.347 145.118 313.022C143.741 311.697 143.053 309.919 143.053 307.688C143.053 305.465 143.746 303.694 145.134 302.369C146.521 301.035 148.414 300.367 150.814 300.367H155.023V323.145H152.113ZM172.078 325.506H157.745V323.145H172.078V325.506ZM186.536 325.506H172.203V323.145H186.536V325.506ZM196.707 323.145V315.009H195.393C192.993 315.009 191.1 314.347 189.712 313.022C188.336 311.697 187.647 309.919 187.647 307.688C187.647 305.465 188.341 303.694 189.728 302.369C191.116 301.035 193.009 300.367 195.408 300.367H199.617V323.145H196.707ZM212.385 323.145V315.009H211.071C208.672 315.009 206.778 314.347 205.391 313.022C204.014 311.697 203.326 309.919 203.326 307.688C203.326 305.465 204.019 303.694 205.407 302.369C206.794 301.035 208.687 300.367 211.087 300.367H215.296V323.145H212.385ZM228.064 323.145V315.009H226.749C224.35 315.009 222.457 314.347 221.07 313.022C219.693 311.697 219.004 309.919 219.004 307.688C219.004 305.465 219.698 303.694 221.085 302.369C222.472 301.035 224.366 300.367 226.765 300.367H230.975V323.145H228.064ZM243.742 323.145V315.009H242.428C240.03 315.009 238.134 314.347 236.747 313.022C235.372 311.697 234.683 309.919 234.683 307.688C234.683 305.465 235.376 303.694 236.763 302.369C238.15 301.035 240.043 300.367 242.444 300.367H246.652V323.145H243.742ZM259.422 323.145V315.009H258.106C255.707 315.009 253.814 314.347 252.427 313.022C251.049 311.697 250.362 309.919 250.362 307.688C250.362 305.465 251.056 303.694 252.443 302.369C253.83 301.035 255.723 300.367 258.122 300.367H262.331V323.145H259.422ZM279.386 325.506H265.052V323.145H279.386V325.506ZM293.845 325.506H279.512V323.145H293.845V325.506ZM308.302 325.506H293.969V323.145H308.302V325.506ZM318.472 323.145V315.009H317.158C314.759 315.009 312.866 314.347 311.479 313.022C310.101 311.697 309.412 309.919 309.412 307.688C309.412 305.465 310.106 303.694 311.495 302.369C312.882 301.035 314.775 300.367 317.174 300.367H321.384V323.145H318.472ZM334.151 323.145V315.009H332.838C330.439 315.009 328.544 314.347 327.156 313.022C325.781 311.697 325.092 309.919 325.092 307.688C325.092 305.465 325.785 303.694 327.172 302.369C328.56 301.035 330.453 300.367 332.854 300.367H337.061V323.145H334.151ZM349.831 323.145V315.009H348.515C346.116 315.009 344.223 314.347 342.836 313.022C341.458 311.697 340.771 309.919 340.771 307.688C340.771 305.465 341.465 303.694 342.852 302.369C344.239 301.035 346.132 300.367 348.531 300.367H352.74V323.145H349.831ZM365.508 323.145V315.009H364.194C361.795 315.009 359.902 314.347 358.515 313.022C357.137 311.697 356.448 309.919 356.448 307.688C356.448 305.465 357.142 303.694 358.529 302.369C359.916 301.035 361.811 300.367 364.21 300.367H368.419V323.145H365.508ZM381.187 323.145V315.009H379.873C377.472 315.009 375.579 314.347 374.192 313.022C372.816 311.697 372.127 309.919 372.127 307.688C372.127 305.465 372.821 303.694 374.208 302.369C375.595 301.035 377.488 300.367 379.887 300.367H384.096V323.145H381.187ZM401.151 325.506H386.82V323.145H401.151V325.506ZM411.324 323.145V315.009H410.01C407.609 315.009 405.716 314.347 404.329 313.022C402.953 311.697 402.264 309.919 402.264 307.688C402.264 305.465 402.957 303.694 404.345 302.369C405.732 301.035 407.625 300.367 410.023 300.367H414.233V323.145H411.324ZM427.001 323.145V315.009H425.687C423.288 315.009 421.395 314.347 420.008 313.022C418.63 311.697 417.941 309.919 417.941 307.688C417.941 305.465 418.634 303.694 420.024 302.369C421.411 301.035 423.304 300.367 425.703 300.367H429.912V323.145H427.001ZM442.68 323.145V315.009H441.366C438.967 315.009 437.074 314.347 435.685 313.022C434.309 311.697 433.62 309.919 433.62 307.688C433.62 305.465 434.314 303.694 435.701 302.369C437.088 301.035 438.981 300.367 441.382 300.367H445.591V323.145H442.68ZM458.359 323.145V315.009H457.043C454.644 315.009 452.751 314.347 451.364 313.022C449.986 311.697 449.3 309.919 449.3 307.688C449.3 305.465 449.993 303.694 451.38 302.369C452.767 301.035 454.66 300.367 457.059 300.367H461.269V323.145H458.359ZM48.9979 360.677V352.541H47.6833C45.2843 352.541 43.3909 351.88 42.0035 350.555C40.6265 349.23 39.9382 347.451 39.9382 345.22C39.9382 342.998 40.6318 341.226 42.0191 339.901C43.4067 338.567 45.2998 337.899 47.6991 337.899H51.9081V360.677H48.9979ZM64.6763 360.677V352.541H63.3618C60.9627 352.541 59.0693 351.88 57.6819 350.555C56.3049 349.23 55.6166 347.451 55.6166 345.22C55.6166 342.998 56.3102 341.226 57.6975 339.901C59.0851 338.567 60.9783 337.899 63.3776 337.899H67.5867V360.677H64.6763ZM143.945 360.677V352.541H142.63C140.231 352.541 138.338 351.88 136.95 350.555C135.573 349.23 134.885 347.451 134.885 345.22C134.885 342.998 135.579 341.226 136.966 339.901C138.353 338.567 140.247 337.899 142.646 337.899H146.855V360.677H143.945ZM159.623 360.677V352.541H158.309C155.909 352.541 154.016 351.88 152.629 350.555C151.252 349.23 150.563 347.451 150.563 345.22C150.563 342.998 151.257 341.226 152.644 339.901C154.032 338.567 155.925 337.899 158.325 337.899H162.533V360.677H159.623ZM179.589 363.039H165.256V360.677H179.589V363.039ZM189.76 360.677V352.541H188.445C186.046 352.541 184.153 351.88 182.765 350.555C181.388 349.23 180.7 347.451 180.7 345.22C180.7 342.998 181.394 341.226 182.781 339.901C184.168 338.567 186.062 337.899 188.461 337.899H192.67V360.677H189.76ZM205.438 360.677V352.541H204.124C201.724 352.541 199.831 351.88 198.444 350.555C197.067 349.23 196.378 347.451 196.378 345.22C196.378 342.998 197.072 341.226 198.459 339.901C199.847 338.567 201.74 337.899 204.139 337.899H208.348V360.677H205.438ZM221.116 360.677V352.541H219.802C217.403 352.541 215.509 351.88 214.122 350.555C212.745 349.23 212.057 347.451 212.057 345.22C212.057 342.998 212.75 341.226 214.138 339.901C215.525 338.567 217.418 337.899 219.818 337.899H224.027V360.677H221.116ZM236.795 360.677V352.541H235.482C233.08 352.541 231.187 351.88 229.8 350.555C228.424 349.23 227.735 347.451 227.735 345.22C227.735 342.998 228.429 341.226 229.816 339.901C231.203 338.567 233.096 337.899 235.495 337.899H239.705V360.677H236.795ZM252.472 360.677V352.541H251.159C248.76 352.541 246.867 351.88 245.48 350.555C244.102 349.23 243.413 347.451 243.413 345.22C243.413 342.998 244.106 341.226 245.496 339.901C246.883 338.567 248.776 337.899 251.175 337.899H255.384V360.677H252.472ZM268.152 360.677V352.541H266.838C264.439 352.541 262.544 351.88 261.157 350.555C259.781 349.23 259.092 347.451 259.092 345.22C259.092 342.998 259.786 341.226 261.173 339.901C262.56 338.567 264.453 337.899 266.854 337.899H271.061V360.677H268.152ZM288.118 363.039H273.785V360.677H288.118V363.039ZM302.575 363.039H288.242V360.677H302.575V363.039ZM317.032 363.039H302.701V360.677H317.032V363.039ZM327.204 360.677V352.541H325.891C323.49 352.541 321.597 351.88 320.209 350.555C318.834 349.23 318.145 347.451 318.145 345.22C318.145 342.998 318.838 341.226 320.225 339.901C321.613 338.567 323.506 337.899 325.904 337.899H330.114V360.677H327.204ZM342.882 360.677V352.541H341.568C339.169 352.541 337.276 351.88 335.889 350.555C334.511 349.23 333.822 347.451 333.822 345.22C333.822 342.998 334.515 341.226 335.905 339.901C337.292 338.567 339.185 337.899 341.584 337.899H345.793V360.677H342.882ZM358.561 360.677V352.541H357.247C354.848 352.541 352.955 351.88 351.566 350.555C350.19 349.23 349.501 347.451 349.501 345.22C349.501 342.998 350.195 341.226 351.582 339.901C352.969 338.567 354.862 337.899 357.263 337.899H361.472V360.677H358.561ZM374.24 360.677V352.541H372.924C370.525 352.541 368.632 351.88 367.245 350.555C365.867 349.23 365.181 347.451 365.181 345.22C365.181 342.998 365.874 341.226 367.261 339.901C368.648 338.567 370.541 337.899 372.94 337.899H377.149V360.677H374.24ZM389.917 360.677V352.541H388.603C386.205 352.541 384.312 351.88 382.925 350.555C381.547 349.23 380.858 347.451 380.858 345.22C380.858 342.998 381.551 341.226 382.938 339.901C384.328 338.567 386.221 337.899 388.619 337.899H392.829V360.677H389.917ZM409.884 363.039H395.55V360.677H409.884V363.039ZM424.341 363.039H410.01V360.677H424.341V363.039ZM434.513 360.677V352.541H433.197C430.798 352.541 428.905 351.88 427.518 350.555C426.14 349.23 425.453 347.451 425.453 345.22C425.453 342.998 426.147 341.226 427.534 339.901C428.921 338.567 430.814 337.899 433.213 337.899H437.422V360.677H434.513ZM450.19 360.677V352.541H448.876C446.477 352.541 444.584 351.88 443.197 350.555C441.819 349.23 441.13 347.451 441.13 345.22C441.13 342.998 441.824 341.226 443.211 339.901C444.6 338.567 446.493 337.899 448.892 337.899H453.102V360.677H450.19ZM513.562 360.677V352.541H512.248C509.847 352.541 507.954 351.88 506.567 350.555C505.191 349.23 504.502 347.451 504.502 345.22C504.502 342.998 505.196 341.226 506.583 339.901C507.97 338.567 509.863 337.899 512.262 337.899H516.471V360.677H513.562ZM529.239 360.677V352.541H527.925C525.526 352.541 523.633 351.88 522.246 350.555C520.868 349.23 520.179 347.451 520.179 345.22C520.179 342.998 520.875 341.226 522.262 339.901C523.649 338.567 525.542 337.899 527.941 337.899H532.151V360.677H529.239ZM25.1516 398.209V390.073H23.8372C21.4379 390.073 19.5447 389.412 18.1573 388.087C16.7803 386.762 16.0918 384.984 16.0918 382.752C16.0918 380.53 16.7855 378.759 18.1729 377.434C19.5603 376.099 21.4536 375.431 23.8528 375.431H28.062V398.209H25.1516ZM40.83 398.209V390.073H39.5157C37.1164 390.073 35.2232 389.412 33.8356 388.087C32.4588 386.762 31.7703 384.984 31.7703 382.752C31.7703 380.53 32.4641 378.759 33.8514 377.434C35.2387 376.099 37.1319 375.431 39.5312 375.431H43.7404V398.209H40.83ZM56.5084 398.209V390.073H55.1941C52.7948 390.073 50.9016 389.412 49.514 388.087C48.1372 386.762 47.4487 384.984 47.4487 382.752C47.4487 380.53 48.1425 378.759 49.5298 377.434C50.9172 376.099 52.8104 375.431 55.2096 375.431H59.4188V398.209H56.5084ZM72.1868 398.209V390.073H70.8725C68.4732 390.073 66.58 389.412 65.1927 388.087C63.8157 386.762 63.1271 384.984 63.1271 382.752C63.1271 380.53 63.8209 378.759 65.2083 377.434C66.5956 376.099 68.489 375.431 70.8881 375.431H75.0972V398.209H72.1868ZM87.8652 398.209V390.073H86.5509C84.1516 390.073 82.2585 389.412 80.8711 388.087C79.4941 386.762 78.8056 384.984 78.8056 382.752C78.8056 380.53 79.4993 378.759 80.8867 377.434C82.274 376.099 84.1674 375.431 86.5665 375.431H90.7756V398.209H87.8652ZM104.842 398.209H101.932V378.919L96.0956 381.063V378.434L104.389 375.321H104.842V398.209ZM121.538 398.209V390.073H120.223C117.824 390.073 115.931 389.412 114.544 388.087C113.167 386.762 112.478 384.984 112.478 382.752C112.478 380.53 113.172 378.759 114.559 377.434C115.947 376.099 117.84 375.431 120.239 375.431H124.448V398.209H121.538ZM141.504 400.571H127.171V398.209H141.504V400.571ZM155.962 400.571H141.629V398.209H155.962V400.571ZM170.42 400.571H156.087V398.209H170.42V400.571ZM180.59 398.209V390.073H179.276C176.877 390.073 174.983 389.412 173.596 388.087C172.219 386.762 171.531 384.984 171.531 382.752C171.531 380.53 172.224 378.759 173.612 377.434C174.999 376.099 176.892 375.431 179.292 375.431H183.501V398.209H180.59ZM196.269 398.209V390.073H194.954C192.555 390.073 190.662 389.412 189.274 388.087C187.898 386.762 187.209 384.984 187.209 382.752C187.209 380.53 187.903 378.759 189.29 377.434C190.678 376.099 192.571 375.431 194.97 375.431H199.179V398.209H196.269ZM211.947 398.209V390.073H210.633C208.234 390.073 206.34 389.412 204.953 388.087C203.576 386.762 202.887 384.984 202.887 382.752C202.887 380.53 203.581 378.759 204.969 377.434C206.356 376.099 208.249 375.431 210.648 375.431H214.858V398.209H211.947ZM227.626 398.209V390.073H226.311C223.912 390.073 222.019 389.412 220.631 388.087C219.254 386.762 218.566 384.984 218.566 382.752C218.566 380.53 219.26 378.759 220.647 377.434C222.034 376.099 223.928 375.431 226.327 375.431H230.535V398.209H227.626ZM247.592 400.571H233.259V398.209H247.592V400.571ZM262.049 400.571H247.716V398.209H262.049V400.571ZM272.219 398.209V390.073H270.905C268.507 390.073 266.614 389.412 265.226 388.087C263.849 386.762 263.16 384.984 263.16 382.752C263.16 380.53 263.853 378.759 265.242 377.434C266.63 376.099 268.523 375.431 270.921 375.431H275.131V398.209H272.219ZM292.186 400.571H277.852V398.209H292.186V400.571ZM306.643 400.571H292.312V398.209H306.643V400.571ZM316.815 398.209V390.073H315.501C313.1 390.073 311.207 389.412 309.82 388.087C308.444 386.762 307.755 384.984 307.755 382.752C307.755 380.53 308.449 378.759 309.836 377.434C311.223 376.099 313.116 375.431 315.515 375.431H319.724V398.209H316.815ZM332.492 398.209V390.073H331.178C328.779 390.073 326.886 389.412 325.499 388.087C324.121 386.762 323.432 384.984 323.432 382.752C323.432 380.53 324.126 378.759 325.515 377.434C326.902 376.099 328.795 375.431 331.194 375.431H335.404V398.209H332.492ZM348.171 398.209V390.073H346.857C344.459 390.073 342.563 389.412 341.176 388.087C339.801 386.762 339.112 384.984 339.112 382.752C339.112 380.53 339.805 378.759 341.192 377.434C342.579 376.099 344.472 375.431 346.873 375.431H351.081V398.209H348.171ZM363.851 398.209V390.073H362.534C360.136 390.073 358.243 389.412 356.856 388.087C355.478 386.762 354.791 384.984 354.791 382.752C354.791 380.53 355.485 378.759 356.872 377.434C358.259 376.099 360.152 375.431 362.551 375.431H366.76V398.209H363.851ZM383.815 400.571H369.484V398.209H383.815V400.571ZM398.274 400.571H383.941V398.209H398.274V400.571ZM408.444 398.209V390.073H407.13C404.731 390.073 402.836 389.412 401.449 388.087C400.073 386.762 399.384 384.984 399.384 382.752C399.384 380.53 400.078 378.759 401.465 377.434C402.852 376.099 404.745 375.431 407.146 375.431H411.353V398.209H408.444ZM424.123 398.209V390.073H422.807C420.408 390.073 418.515 389.412 417.128 388.087C415.75 386.762 415.064 384.984 415.064 382.752C415.064 380.53 415.757 378.759 417.144 377.434C418.531 376.099 420.424 375.431 422.823 375.431H427.033V398.209H424.123ZM463.647 398.209V390.073H462.333C459.934 390.073 458.041 389.412 456.654 388.087C455.276 386.762 454.587 384.984 454.587 382.752C454.587 380.53 455.281 378.759 456.668 377.434C458.055 376.099 459.95 375.431 462.349 375.431H466.558V398.209H463.647ZM479.326 398.209V390.073H478.012C475.611 390.073 473.718 389.412 472.331 388.087C470.955 386.762 470.266 384.984 470.266 382.752C470.266 380.53 470.96 378.759 472.347 377.434C473.734 376.099 475.627 375.431 478.026 375.431H482.235V398.209H479.326ZM495.003 398.209V390.073H493.689C491.29 390.073 489.397 389.412 488.01 388.087C486.632 386.762 485.943 384.984 485.943 382.752C485.943 380.53 486.637 378.759 488.026 377.434C489.414 376.099 491.306 375.431 493.705 375.431H497.915V398.209H495.003ZM510.682 398.209V390.073H509.369C506.97 390.073 505.075 389.412 503.687 388.087C502.312 386.762 501.623 384.984 501.623 382.752C501.623 380.53 502.316 378.759 503.703 377.434C505.091 376.099 506.984 375.431 509.385 375.431H513.594V398.209H510.682ZM9.25404 435.742V427.606H7.93968C5.54044 427.606 3.64713 426.944 2.25976 425.619C0.882811 424.294 0.194336 422.516 0.194336 420.285C0.194336 418.062 0.888026 416.291 2.27541 414.966C3.66279 413.632 5.5561 412.964 7.95533 412.964H12.1644V435.742H9.25404ZM24.9325 435.742V427.606H23.6182C21.2189 427.606 19.3256 426.944 17.9382 425.619C16.5612 424.294 15.8728 422.516 15.8728 420.285C15.8728 418.062 16.5665 416.291 17.9539 414.966C19.3412 413.632 21.2345 412.964 23.6338 412.964H27.8429V435.742H24.9325ZM44.8981 438.103H30.5654V435.742H44.8981V438.103ZM59.3561 438.103H45.0233V435.742H59.3561V438.103ZM73.8143 438.103H59.4813V435.742H73.8143V438.103ZM88.2722 438.103H73.9392V435.742H88.2722V438.103ZM98.4427 435.742V427.606H97.1284C94.7291 427.606 92.8359 426.944 91.4486 425.619C90.0716 424.294 89.383 422.516 89.383 420.285C89.383 418.062 90.0768 416.291 91.4642 414.966C92.8515 413.632 94.7449 412.964 97.144 412.964H101.353V435.742H98.4427ZM114.121 435.742V427.606H112.807C110.408 427.606 108.514 426.944 107.127 425.619C105.75 424.294 105.061 422.516 105.061 420.285C105.061 418.062 105.755 416.291 107.143 414.966C108.53 413.632 110.423 412.964 112.822 412.964H117.032V435.742H114.121ZM129.8 435.742V427.606H128.485C126.086 427.606 124.193 426.944 122.805 425.619C121.428 424.294 120.74 422.516 120.74 420.285C120.74 418.062 121.434 416.291 122.821 414.966C124.208 413.632 126.102 412.964 128.501 412.964H132.71V435.742H129.8ZM149.765 438.103H135.433V435.742H149.765V438.103ZM164.223 438.103H149.891V435.742H164.223V438.103ZM178.681 438.103H164.349V435.742H178.681V438.103ZM193.139 438.103H178.807V435.742H193.139V438.103ZM207.597 438.103H193.264V435.742H207.597V438.103ZM222.055 438.103H207.722V435.742H222.055V438.103ZM236.514 438.103H222.18V435.742H236.514V438.103ZM246.684 435.742V427.606H245.37C242.971 427.606 241.078 426.944 239.689 425.619C238.313 424.294 237.624 422.516 237.624 420.285C237.624 418.062 238.318 416.291 239.705 414.966C241.092 413.632 242.987 412.964 245.386 412.964H249.595V435.742H246.684ZM262.363 435.742V427.606H261.047C258.648 427.606 256.755 426.944 255.368 425.619C253.99 424.294 253.303 422.516 253.303 420.285C253.303 418.062 253.997 416.291 255.384 414.966C256.771 413.632 258.664 412.964 261.063 412.964H265.272V435.742H262.363ZM278.04 435.742V427.606H276.726C274.327 427.606 272.434 426.944 271.047 425.619C269.669 424.294 268.98 422.516 268.98 420.285C268.98 418.062 269.674 416.291 271.061 414.966C272.45 413.632 274.343 412.964 276.742 412.964H280.952V435.742H278.04ZM298.007 438.103H283.673V435.742H298.007V438.103ZM312.464 438.103H298.132V435.742H312.464V438.103ZM326.923 438.103H312.59V435.742H326.923V438.103ZM341.38 438.103H327.047V435.742H341.38V438.103ZM355.839 438.103H341.506V435.742H355.839V438.103ZM370.296 438.103H355.963V435.742H370.296V438.103ZM384.753 438.103H370.422V435.742H384.753V438.103ZM394.925 435.742V427.606H393.612C391.211 427.606 389.318 426.944 387.93 425.619C386.555 424.294 385.866 422.516 385.866 420.285C385.866 418.062 386.559 416.291 387.946 414.966C389.334 413.632 391.227 412.964 393.625 412.964H397.835V435.742H394.925ZM410.603 435.742V427.606H409.289C406.89 427.606 404.997 426.944 403.61 425.619C402.232 424.294 401.543 422.516 401.543 420.285C401.543 418.062 402.236 416.291 403.626 414.966C405.013 413.632 406.906 412.964 409.305 412.964H413.514V435.742H410.603ZM426.282 435.742V427.606H424.968C422.569 427.606 420.674 426.944 419.287 425.619C417.911 424.294 417.222 422.516 417.222 420.285C417.222 418.062 417.916 416.291 419.303 414.966C420.69 413.632 422.583 412.964 424.984 412.964H429.191V435.742H426.282ZM441.961 435.742V427.606H440.645C438.246 427.606 436.353 426.944 434.966 425.619C433.588 424.294 432.902 422.516 432.902 420.285C432.902 418.062 433.595 416.291 434.982 414.966C436.369 413.632 438.262 412.964 440.661 412.964H444.87V435.742H441.961ZM461.925 438.103H447.594V435.742H461.925V438.103ZM476.385 438.103H462.051V435.742H476.385V438.103ZM490.842 438.103H476.508V435.742H490.842V438.103ZM501.012 435.742V427.606H499.698C497.299 427.606 495.406 426.944 494.019 425.619C492.641 424.294 491.952 422.516 491.952 420.285C491.952 418.062 492.646 416.291 494.035 414.966C495.422 413.632 497.315 412.964 499.714 412.964H503.923V435.742H501.012ZM516.691 435.742V427.606H515.377C512.978 427.606 511.083 426.944 509.696 425.619C508.32 424.294 507.631 422.516 507.631 420.285C507.631 418.062 508.325 416.291 509.712 414.966C511.099 413.632 512.992 412.964 515.393 412.964H519.603V435.742H516.691ZM17.2028 473.274V465.138H15.8884C13.4892 465.138 11.5959 464.477 10.2085 463.152C8.83157 461.827 8.1431 460.048 8.1431 457.817C8.1431 455.595 8.83679 453.823 10.2242 452.498C11.6115 451.164 13.5048 450.496 15.9041 450.496H20.1132V473.274H17.2028ZM32.8811 473.274V465.138H31.5668C29.1675 465.138 27.2743 464.477 25.887 463.152C24.51 461.827 23.8214 460.048 23.8214 457.817C23.8214 455.595 24.5152 453.823 25.9026 452.498C27.2899 451.164 29.1833 450.496 31.5826 450.496H35.7915V473.274H32.8811ZM48.5598 473.274V465.138H47.2452C44.8462 465.138 42.9528 464.477 41.5654 463.152C40.1884 461.827 39.4999 460.048 39.4999 457.817C39.4999 455.595 40.1937 453.823 41.581 452.498C42.9683 451.164 44.8617 450.496 47.261 450.496H51.47V473.274H48.5598ZM64.2382 473.274V465.138H62.9237C60.5246 465.138 58.6312 464.477 57.2438 463.152C55.8668 461.827 55.1785 460.048 55.1785 457.817C55.1785 455.595 55.8721 453.823 57.2594 452.498C58.647 451.164 60.5402 450.496 62.9394 450.496H67.1484V473.274H64.2382ZM79.9166 473.274V465.138H78.6023C76.203 465.138 74.3096 464.477 72.9223 463.152C71.5452 461.827 70.8569 460.048 70.8569 457.817C70.8569 455.595 71.5505 453.823 72.9378 452.498C74.3254 451.164 76.2186 450.496 78.6179 450.496H82.827V473.274H79.9166ZM95.595 473.274V465.138H94.2807C91.8814 465.138 89.988 464.477 88.6007 463.152C87.2239 461.827 86.5354 460.048 86.5354 457.817C86.5354 455.595 87.2289 453.823 88.6165 452.498C90.0038 451.164 91.897 450.496 94.2963 450.496H98.5054V473.274H95.595ZM111.273 473.274V465.138H109.959C107.56 465.138 105.666 464.477 104.279 463.152C102.902 461.827 102.214 460.048 102.214 457.817C102.214 455.595 102.907 453.823 104.295 452.498C105.682 451.164 107.575 450.496 109.975 450.496H114.184V473.274H111.273ZM131.239 475.636H116.906V473.274H131.239V475.636ZM141.41 473.274V465.138H140.096C137.696 465.138 135.803 464.477 134.415 463.152C133.039 461.827 132.35 460.048 132.35 457.817C132.35 455.595 133.044 453.823 134.431 452.498C135.819 451.164 137.712 450.496 140.111 450.496H144.32V473.274H141.41ZM157.088 473.274V465.138H155.774C153.375 465.138 151.481 464.477 150.094 463.152C148.717 461.827 148.029 460.048 148.029 457.817C148.029 455.595 148.722 453.823 150.11 452.498C151.497 451.164 153.39 450.496 155.79 450.496H159.999V473.274H157.088ZM172.767 473.274V465.138H171.452C169.053 465.138 167.16 464.477 165.773 463.152C164.396 461.827 163.707 460.048 163.707 457.817C163.707 455.595 164.401 453.823 165.788 452.498C167.175 451.164 169.069 450.496 171.468 450.496H175.677V473.274H172.767ZM188.445 473.274V465.138H187.131C184.731 465.138 182.838 464.477 181.451 463.152C180.074 461.827 179.385 460.048 179.385 457.817C179.385 455.595 180.079 453.823 181.467 452.498C182.854 451.164 184.747 450.496 187.147 450.496H191.356V473.274H188.445ZM208.411 475.636H194.078V473.274H208.411V475.636ZM222.869 475.636H208.536V473.274H222.869V475.636ZM237.326 475.636H222.994V473.274H237.326V475.636ZM247.499 473.274V465.138H246.182C243.784 465.138 241.891 464.477 240.503 463.152C239.126 461.827 238.439 460.048 238.439 457.817C238.439 455.595 239.132 453.823 240.52 452.498C241.907 451.164 243.8 450.496 246.198 450.496H250.408V473.274H247.499ZM263.176 473.274V465.138H261.862C259.463 465.138 257.57 464.477 256.183 463.152C254.805 461.827 254.116 460.048 254.116 457.817C254.116 455.595 254.809 453.823 256.197 452.498C257.584 451.164 259.479 450.496 261.878 450.496H266.087V473.274H263.176ZM278.855 473.274V465.138H277.541C275.14 465.138 273.247 464.477 271.86 463.152C270.484 461.827 269.795 460.048 269.795 457.817C269.795 455.595 270.489 453.823 271.876 452.498C273.263 451.164 275.156 450.496 277.555 450.496H281.764V473.274H278.855ZM294.532 473.274V465.138H293.218C290.819 465.138 288.926 464.477 287.539 463.152C286.161 461.827 285.472 460.048 285.472 457.817C285.472 455.595 286.166 453.823 287.555 452.498C288.942 451.164 290.835 450.496 293.234 450.496H297.443V473.274H294.532ZM310.211 473.274V465.138H308.897C306.499 465.138 304.603 464.477 303.216 463.152C301.841 461.827 301.152 460.048 301.152 457.817C301.152 455.595 301.845 453.823 303.232 452.498C304.619 451.164 306.512 450.496 308.913 450.496H313.121V473.274H310.211ZM330.178 475.636H315.844V473.274H330.178V475.636ZM344.635 475.636H330.301V473.274H344.635V475.636ZM359.092 475.636H344.761V473.274H359.092V475.636ZM369.264 473.274V465.138H367.95C365.549 465.138 363.656 464.477 362.269 463.152C360.893 461.827 360.204 460.048 360.204 457.817C360.204 455.595 360.898 453.823 362.285 452.498C363.672 451.164 365.565 450.496 367.964 450.496H372.173V473.274H369.264ZM384.941 473.274V465.138H383.627C381.228 465.138 379.335 464.477 377.948 463.152C376.57 461.827 375.881 460.048 375.881 457.817C375.881 455.595 376.575 453.823 377.964 452.498C379.351 451.164 381.244 450.496 383.643 450.496H387.853V473.274H384.941ZM400.62 473.274V465.138H399.307C396.908 465.138 395.015 464.477 393.625 463.152C392.25 461.827 391.561 460.048 391.561 457.817C391.561 455.595 392.254 453.823 393.641 452.498C395.028 451.164 396.921 450.496 399.323 450.496H403.532V473.274H400.62ZM420.587 475.636H406.254V473.274H420.587V475.636ZM435.044 475.636H420.711V473.274H435.044V475.636ZM449.503 475.636H435.17V473.274H449.503V475.636ZM463.96 475.636H449.627V473.274H463.96V475.636ZM474.13 473.274V465.138H472.816C470.417 465.138 468.525 464.477 467.137 463.152C465.759 461.827 465.07 460.048 465.07 457.817C465.07 455.595 465.764 453.823 467.151 452.498C468.541 451.164 470.433 450.496 472.832 450.496H477.042V473.274H474.13ZM489.809 473.274V465.138H488.496C486.095 465.138 484.202 464.477 482.814 463.152C481.439 461.827 480.75 460.048 480.75 457.817C480.75 455.595 481.443 453.823 482.83 452.498C484.218 451.164 486.111 450.496 488.512 450.496H492.719V473.274H489.809ZM505.489 473.274V465.138H504.173C501.774 465.138 499.881 464.477 498.494 463.152C497.116 461.827 496.427 460.048 496.427 457.817C496.427 455.595 497.123 453.823 498.51 452.498C499.897 451.164 501.79 450.496 504.189 450.496H508.398V473.274H505.489ZM521.166 473.274V465.138H519.852C517.453 465.138 515.56 464.477 514.171 463.152C512.795 461.827 512.106 460.048 512.106 457.817C512.106 455.595 512.8 453.823 514.187 452.498C515.574 451.164 517.469 450.496 519.868 450.496H524.077V473.274H521.166ZM536.845 473.274V465.138H535.529C533.13 465.138 531.237 464.477 529.85 463.152C528.472 461.827 527.786 460.048 527.786 457.817C527.786 455.595 528.479 453.823 529.866 452.498C531.253 451.164 533.146 450.496 535.545 450.496H539.755V473.274H536.845ZM128.485 510.806V502.67H127.171C124.772 502.67 122.878 502.009 121.491 500.684C120.114 499.359 119.426 497.581 119.426 495.349C119.426 493.127 120.119 491.356 121.507 490.031C122.894 488.696 124.787 488.028 127.187 488.028H131.396V510.806H128.485ZM144.164 510.806V502.67H142.849C140.45 502.67 138.557 502.009 137.17 500.684C135.793 499.359 135.104 497.581 135.104 495.349C135.104 493.127 135.798 491.356 137.185 490.031C138.572 488.696 140.466 488.028 142.865 488.028H147.074V510.806H144.164ZM159.842 510.806V502.67H158.528C156.128 502.67 154.235 502.009 152.848 500.684C151.471 499.359 150.782 497.581 150.782 495.349C150.782 493.127 151.476 491.356 152.864 490.031C154.251 488.696 156.144 488.028 158.544 488.028H162.753V510.806H159.842ZM175.521 510.806V502.67H174.206C171.807 502.67 169.914 502.009 168.526 500.684C167.149 499.359 166.461 497.581 166.461 495.349C166.461 493.127 167.155 491.356 168.542 490.031C169.929 488.696 171.823 488.028 174.222 488.028H178.431V510.806H175.521ZM191.199 510.806V502.67H189.885C187.486 502.67 185.592 502.009 184.205 500.684C182.828 499.359 182.139 497.581 182.139 495.349C182.139 493.127 182.833 491.356 184.22 490.031C185.608 488.696 187.501 488.028 189.9 488.028H194.109V510.806H191.199ZM211.165 513.168H196.832V510.806H211.165V513.168ZM221.336 510.806V502.67H220.021C217.622 502.67 215.729 502.009 214.341 500.684C212.964 499.359 212.276 497.581 212.276 495.349C212.276 493.127 212.969 491.356 214.357 490.031C215.744 488.696 217.638 488.028 220.037 488.028H224.246V510.806H221.336ZM241.302 513.168H226.968V510.806H241.302V513.168ZM255.759 513.168H241.426V510.806H255.759V513.168ZM270.216 513.168H255.885V510.806H270.216V513.168ZM284.676 513.168H270.342V510.806H284.676V513.168ZM299.133 513.168H284.799V510.806H299.133V513.168ZM313.592 513.168H299.259V510.806H313.592V513.168ZM328.049 513.168H313.716V510.806H328.049V513.168ZM342.506 513.168H328.175V510.806H342.506V513.168ZM352.678 510.806V502.67H351.364C348.963 502.67 347.07 502.009 345.683 500.684C344.308 499.359 343.619 497.581 343.619 495.349C343.619 493.127 344.312 491.356 345.699 490.031C347.086 488.696 348.979 488.028 351.378 488.028H355.588V510.806H352.678ZM368.355 510.806V502.67H367.041C364.643 502.67 362.75 502.009 361.363 500.684C359.985 499.359 359.296 497.581 359.296 495.349C359.296 493.127 359.989 491.356 361.379 490.031C362.766 488.696 364.659 488.028 367.057 488.028H371.267V510.806H368.355ZM388.322 513.168H373.988V510.806H388.322V513.168ZM398.492 510.806V502.67H397.178C394.779 502.67 392.886 502.009 391.499 500.684C390.121 499.359 389.432 497.581 389.432 495.349C389.432 493.127 390.126 491.356 391.515 490.031C392.902 488.696 394.795 488.028 397.194 488.028H401.403V510.806H398.492ZM414.171 510.806V502.67H412.857C410.458 502.67 408.563 502.009 407.176 500.684C405.8 499.359 405.111 497.581 405.111 495.349C405.111 493.127 405.805 491.356 407.192 490.031C408.579 488.696 410.472 488.028 412.873 488.028H417.08V510.806H414.171ZM429.85 510.806V502.67H428.534C426.135 502.67 424.242 502.009 422.855 500.684C421.477 499.359 420.791 497.581 420.791 495.349C420.791 493.127 421.484 491.356 422.871 490.031C424.258 488.696 426.151 488.028 428.55 488.028H432.76V510.806H429.85ZM445.527 510.806V502.67H444.214C441.815 502.67 439.922 502.009 438.535 500.684C437.157 499.359 436.468 497.581 436.468 495.349C436.468 493.127 437.161 491.356 438.548 490.031C439.935 488.696 441.831 488.028 444.23 488.028H448.439V510.806H445.527ZM461.207 510.806V502.67H459.893C457.492 502.67 455.599 502.009 454.212 500.684C452.836 499.359 452.147 497.581 452.147 495.349C452.147 493.127 452.841 491.356 454.228 490.031C455.615 488.696 457.508 488.028 459.907 488.028H464.116V510.806H461.207ZM476.884 510.806V502.67H475.57C473.171 502.67 471.278 502.009 469.891 500.684C468.513 499.359 467.824 497.581 467.824 495.349C467.824 493.127 468.518 491.356 469.907 490.031C471.294 488.696 473.187 488.028 475.586 488.028H479.795V510.806H476.884ZM492.563 510.806V502.67H491.249C488.85 502.67 486.955 502.009 485.568 500.684C484.192 499.359 483.503 497.581 483.503 495.349C483.503 493.127 484.197 491.356 485.584 490.031C486.971 488.696 488.864 488.028 491.265 488.028H495.472V510.806H492.563ZM509.54 510.806H506.631V491.516L500.794 493.66V491.031L509.087 487.918H509.54V510.806ZM526.236 510.806V502.67H524.922C522.523 502.67 520.628 502.009 519.241 500.684C517.865 499.359 517.176 497.581 517.176 495.349C517.176 493.127 517.87 491.356 519.257 490.031C520.644 488.696 522.537 488.028 524.938 488.028H529.145V510.806H526.236ZM541.915 510.806V502.67H540.599C538.2 502.67 536.307 502.009 534.92 500.684C533.542 499.359 532.856 497.581 532.856 495.349C532.856 493.127 533.549 491.356 534.936 490.031C536.323 488.696 538.216 488.028 540.615 488.028H544.825V510.806H541.915ZM176.178 548.339V540.203H174.863C172.464 540.203 170.571 539.541 169.184 538.216C167.807 536.891 167.118 535.113 167.118 532.882C167.118 530.659 167.812 528.888 169.199 527.563C170.587 526.229 172.48 525.561 174.879 525.561H179.088V548.339H176.178ZM191.856 548.339V540.203H190.542C188.143 540.203 186.249 539.541 184.862 538.216C183.485 536.891 182.797 535.113 182.797 532.882C182.797 530.659 183.49 528.888 184.878 527.563C186.265 526.229 188.158 525.561 190.558 525.561H194.767V548.339H191.856ZM211.822 550.7H197.489V548.339H211.822V550.7ZM221.993 548.339V540.203H220.678C218.279 540.203 216.386 539.541 214.998 538.216C213.622 536.891 212.933 535.113 212.933 532.882C212.933 530.659 213.627 528.888 215.014 527.563C216.401 526.229 218.295 525.561 220.694 525.561H224.903V548.339H221.993ZM237.672 548.339V540.203H236.356C233.957 540.203 232.064 539.541 230.677 538.216C229.299 536.891 228.611 535.113 228.611 532.882C228.611 530.659 229.306 528.888 230.693 527.563C232.08 526.229 233.973 525.561 236.372 525.561H240.581V548.339H237.672ZM253.349 548.339V540.203H252.035C249.636 540.203 247.743 539.541 246.356 538.216C244.978 536.891 244.289 535.113 244.289 532.882C244.289 530.659 244.983 528.888 246.37 527.563C247.757 526.229 249.652 525.561 252.051 525.561H256.261V548.339H253.349ZM273.316 550.7H258.982V548.339H273.316V550.7ZM287.773 550.7H273.442V548.339H287.773V550.7ZM302.232 550.7H287.899V548.339H302.232V550.7ZM312.402 548.339V540.203H311.088C308.689 540.203 306.794 539.541 305.407 538.216C304.031 536.891 303.342 535.113 303.342 532.882C303.342 530.659 304.036 528.888 305.423 527.563C306.81 526.229 308.703 525.561 311.104 525.561H315.313V548.339H312.402ZM328.081 548.339V540.203H326.765C324.366 540.203 322.473 539.541 321.086 538.216C319.708 536.891 319.021 535.113 319.021 532.882C319.021 530.659 319.715 528.888 321.102 527.563C322.489 526.229 324.382 525.561 326.781 525.561H330.99V548.339H328.081ZM343.758 548.339V540.203H342.444C340.046 540.203 338.153 539.541 336.765 538.216C335.387 536.891 334.699 535.113 334.699 532.882C334.699 530.659 335.392 528.888 336.779 527.563C338.169 526.229 340.062 525.561 342.46 525.561H346.67V548.339H343.758ZM359.438 548.339V540.203H358.124C355.723 540.203 353.83 539.541 352.442 538.216C351.067 536.891 350.378 535.113 350.378 532.882C350.378 530.659 351.071 528.888 352.459 527.563C353.846 526.229 355.739 525.561 358.137 525.561H362.347V548.339H359.438ZM375.115 548.339V540.203H373.801C371.402 540.203 369.509 539.541 368.122 538.216C366.744 536.891 366.055 535.113 366.055 532.882C366.055 530.659 366.751 528.888 368.138 527.563C369.525 526.229 371.418 525.561 373.817 525.561H378.026V548.339H375.115ZM395.081 550.7H380.748V548.339H395.081V550.7ZM405.251 548.339V540.203H403.937C401.538 540.203 399.645 539.541 398.258 538.216C396.88 536.891 396.191 535.113 396.191 532.882C396.191 530.659 396.887 528.888 398.274 527.563C399.661 526.229 401.554 525.561 403.953 525.561H408.163V548.339H405.251ZM420.93 548.339V540.203H419.616C417.218 540.203 415.325 539.541 413.935 538.216C412.56 536.891 411.871 535.113 411.871 532.882C411.871 530.659 412.564 528.888 413.951 527.563C415.338 526.229 417.234 525.561 419.632 525.561H423.842V548.339H420.93ZM184.127 585.871V577.735H182.812C180.413 577.735 178.52 577.074 177.132 575.749C175.755 574.424 175.067 572.645 175.067 570.414C175.067 568.192 175.761 566.42 177.148 565.095C178.535 563.761 180.429 563.093 182.828 563.093H187.037V585.871H184.127ZM199.805 585.871V577.735H198.491C196.091 577.735 194.198 577.074 192.811 575.749C191.434 574.424 190.745 572.645 190.745 570.414C190.745 568.192 191.439 566.42 192.826 565.095C194.214 563.761 196.107 563.093 198.506 563.093H202.715V585.871H199.805ZM219.771 588.233H205.438V585.871H219.771V588.233ZM229.942 585.871V577.735H228.627C226.228 577.735 224.335 577.074 222.947 575.749C221.57 574.424 220.882 572.645 220.882 570.414C220.882 568.192 221.575 566.42 222.963 565.095C224.35 563.761 226.244 563.093 228.643 563.093H232.852V585.871H229.942ZM245.619 585.871V577.735H244.305C241.907 577.735 240.014 577.074 238.627 575.749C237.249 574.424 236.56 572.645 236.56 570.414C236.56 568.192 237.253 566.42 238.64 565.095C240.03 563.761 241.923 563.093 244.321 563.093H248.531V585.871H245.619ZM261.299 585.871V577.735H259.985C257.584 577.735 255.691 577.074 254.304 575.749C252.928 574.424 252.239 572.645 252.239 570.414C252.239 568.192 252.932 566.42 254.32 565.095C255.707 563.761 257.6 563.093 259.998 563.093H264.208V585.871H261.299ZM276.976 585.871V577.735H275.662C273.263 577.735 271.37 577.074 269.983 575.749C268.605 574.424 267.916 572.645 267.916 570.414C267.916 568.192 268.612 566.42 269.999 565.095C271.386 563.761 273.279 563.093 275.678 563.093H279.887V585.871H276.976ZM292.655 585.871V577.735H291.341C288.942 577.735 287.049 577.074 285.66 575.749C284.284 574.424 283.595 572.645 283.595 570.414C283.595 568.192 284.289 566.42 285.676 565.095C287.063 563.761 288.958 563.093 291.357 563.093H295.567V585.871H292.655ZM308.334 585.871V577.735H307.018C304.619 577.735 302.726 577.074 301.339 575.749C299.961 574.424 299.275 572.645 299.275 570.414C299.275 568.192 299.968 566.42 301.355 565.095C302.742 563.761 304.635 563.093 307.034 563.093H311.244V585.871H308.334ZM324.011 585.871V577.735H322.698C320.299 577.735 318.406 577.074 317.019 575.749C315.641 574.424 314.952 572.645 314.952 570.414C314.952 568.192 315.645 566.42 317.032 565.095C318.422 563.761 320.315 563.093 322.714 563.093H326.923V585.871H324.011ZM339.691 585.871V577.735H338.377C335.978 577.735 334.083 577.074 332.696 575.749C331.32 574.424 330.631 572.645 330.631 570.414C330.631 568.192 331.325 566.42 332.712 565.095C334.099 563.761 335.992 563.093 338.393 563.093H342.6V585.871H339.691ZM355.37 585.871V577.735H354.054C351.655 577.735 349.762 577.074 348.375 575.749C346.997 574.424 346.31 572.645 346.31 570.414C346.31 568.192 347.004 566.42 348.391 565.095C349.778 563.761 351.671 563.093 354.07 563.093H358.279V585.871H355.37ZM371.047 585.871V577.735H369.733C367.334 577.735 365.441 577.074 364.052 575.749C362.676 574.424 361.987 572.645 361.987 570.414C361.987 568.192 362.681 566.42 364.068 565.095C365.455 563.761 367.35 563.093 369.749 563.093H373.959V585.871H371.047ZM391.014 588.233H376.68V585.871H391.014V588.233ZM405.471 588.233H391.137V585.871H405.471V588.233ZM415.643 585.871V577.735H414.327C411.928 577.735 410.035 577.074 408.648 575.749C407.27 574.424 406.583 572.645 406.583 570.414C406.583 568.192 407.277 566.42 408.664 565.095C410.051 563.761 411.944 563.093 414.343 563.093H418.552V585.871H415.643ZM431.32 585.871V577.735H430.006C427.607 577.735 425.714 577.074 424.325 575.749C422.949 574.424 422.26 572.645 422.26 570.414C422.26 568.192 422.954 566.42 424.341 565.095C425.728 563.761 427.623 563.093 430.022 563.093H434.231V585.871H431.32ZM41.049 623.403V615.267H39.7347C37.3354 615.267 35.4422 614.606 34.0547 613.281C32.6779 611.956 31.9894 610.178 31.9894 607.946C31.9894 605.724 32.6831 603.953 34.0705 602.628C35.4578 601.293 37.351 600.625 39.7503 600.625H43.9594V623.403H41.049ZM56.7275 623.403V615.267H55.4131C53.0139 615.267 51.1207 614.606 49.7331 613.281C48.3563 611.956 47.6678 610.178 47.6678 607.946C47.6678 605.724 48.3616 603.953 49.7489 602.628C51.1362 601.293 53.0296 600.625 55.4287 600.625H59.6379V623.403H56.7275ZM72.4059 623.403V615.267H71.0916C68.6923 615.267 66.7991 614.606 65.4117 613.281C64.0347 611.956 63.3462 610.178 63.3462 607.946C63.3462 605.724 64.04 603.953 65.4273 602.628C66.8146 601.293 68.7081 600.625 71.1071 600.625H75.3163V623.403H72.4059ZM88.0843 623.403V615.267H86.77C84.3707 615.267 82.4775 614.606 81.0902 613.281C79.7131 611.956 79.0246 610.178 79.0246 607.946C79.0246 605.724 79.7184 603.953 81.1057 602.628C82.4931 601.293 84.3865 600.625 86.7855 600.625H90.9947V623.403H88.0843ZM103.763 623.403V615.267H102.448C100.049 615.267 98.1559 614.606 96.7686 613.281C95.3916 611.956 94.703 610.178 94.703 607.946C94.703 605.724 95.3968 603.953 96.7842 602.628C98.1715 601.293 100.065 600.625 102.464 600.625H106.673V623.403H103.763ZM119.441 623.403V615.267H118.127C115.728 615.267 113.834 614.606 112.447 613.281C111.07 611.956 110.381 610.178 110.381 607.946C110.381 605.724 111.075 603.953 112.463 602.628C113.85 601.293 115.743 600.625 118.143 600.625H122.352V623.403H119.441ZM135.12 623.403V615.267H133.805C131.406 615.267 129.513 614.606 128.125 613.281C126.748 611.956 126.06 610.178 126.06 607.946C126.06 605.724 126.754 603.953 128.141 602.628C129.529 601.293 131.422 600.625 133.821 600.625H138.03V623.403H135.12ZM150.798 623.403V615.267H149.484C147.085 615.267 145.191 614.606 143.804 613.281C142.427 611.956 141.739 610.178 141.739 607.946C141.739 605.724 142.432 603.953 143.819 602.628C145.207 601.293 147.1 600.625 149.499 600.625H153.709V623.403H150.798ZM170.764 625.765H156.431V623.403H170.764V625.765ZM180.935 623.403V615.267H179.62C177.221 615.267 175.328 614.606 173.94 613.281C172.563 611.956 171.875 610.178 171.875 607.946C171.875 605.724 172.568 603.953 173.956 602.628C175.343 601.293 177.237 600.625 179.636 600.625H183.845V623.403H180.935ZM196.613 623.403V615.267H195.299C192.899 615.267 191.006 614.606 189.619 613.281C188.242 611.956 187.553 610.178 187.553 607.946C187.553 605.724 188.247 603.953 189.634 602.628C191.022 601.293 192.915 600.625 195.314 600.625H199.523V623.403H196.613ZM216.579 625.765H202.246V623.403H216.579V625.765ZM231.036 625.765H216.704V623.403H231.036V625.765ZM245.496 625.765H231.162V623.403H245.496V625.765ZM255.665 623.403V615.267H254.352C251.953 615.267 250.058 614.606 248.67 613.281C247.295 611.956 246.606 610.178 246.606 607.946C246.606 605.724 247.299 603.953 248.686 602.628C250.074 601.293 251.967 600.625 254.368 600.625H258.575V623.403H255.665ZM271.345 623.403V615.267H270.029C267.63 615.267 265.737 614.606 264.35 613.281C262.972 611.956 262.285 610.178 262.285 607.946C262.285 605.724 262.979 603.953 264.366 602.628C265.753 601.293 267.646 600.625 270.045 600.625H274.254V623.403H271.345ZM287.022 623.403V615.267H285.708C283.309 615.267 281.416 614.606 280.027 613.281C278.651 611.956 277.962 610.178 277.962 607.946C277.962 605.724 278.656 603.953 280.043 602.628C281.43 601.293 283.325 600.625 285.724 600.625H289.933V623.403H287.022ZM302.701 623.403V615.267H301.387C298.986 615.267 297.093 614.606 295.706 613.281C294.331 611.956 293.642 610.178 293.642 607.946C293.642 605.724 294.335 603.953 295.722 602.628C297.109 601.293 299.002 600.625 301.401 600.625H305.61V623.403H302.701ZM318.378 623.403V615.267H317.064C314.666 615.267 312.773 614.606 311.386 613.281C310.008 611.956 309.319 610.178 309.319 607.946C309.319 605.724 310.012 603.953 311.402 602.628C312.789 601.293 314.682 600.625 317.08 600.625H321.29V623.403H318.378ZM338.345 625.765H324.011V623.403H338.345V625.765ZM352.802 625.765H338.471V623.403H352.802V625.765ZM367.261 625.765H352.928V623.403H367.261V625.765ZM377.431 623.403V615.267H376.117C373.718 615.267 371.825 614.606 370.438 613.281C369.06 611.956 368.371 610.178 368.371 607.946C368.371 605.724 369.065 603.953 370.452 602.628C371.839 601.293 373.734 600.625 376.133 600.625H380.343V623.403H377.431ZM393.11 623.403V615.267H391.796C389.395 615.267 387.502 614.606 386.115 613.281C384.74 611.956 384.051 610.178 384.051 607.946C384.051 605.724 384.744 603.953 386.131 602.628C387.518 601.293 389.411 600.625 391.81 600.625H396.02V623.403H393.11ZM408.787 623.403V615.267H407.474C405.075 615.267 403.182 614.606 401.795 613.281C400.417 611.956 399.728 610.178 399.728 607.946C399.728 605.724 400.421 603.953 401.811 602.628C403.198 601.293 405.091 600.625 407.49 600.625H411.699V623.403H408.787ZM424.467 623.403V615.267H423.153C420.754 615.267 418.859 614.606 417.472 613.281C416.096 611.956 415.407 610.178 415.407 607.946C415.407 605.724 416.101 603.953 417.488 602.628C418.875 601.293 420.768 600.625 423.169 600.625H427.376V623.403H424.467ZM440.146 623.403V615.267H438.83C436.431 615.267 434.538 614.606 433.151 613.281C431.773 611.956 431.086 610.178 431.086 607.946C431.086 605.724 431.78 603.953 433.167 602.628C434.554 601.293 436.447 600.625 438.846 600.625H443.055V623.403H440.146ZM455.823 623.403V615.267H454.509C452.11 615.267 450.217 614.606 448.83 613.281C447.452 611.956 446.763 610.178 446.763 607.946C446.763 605.724 447.457 603.953 448.844 602.628C450.233 601.293 452.126 600.625 454.525 600.625H458.735V623.403H455.823ZM472.8 623.403H469.891V604.113L464.054 606.257V603.628L472.347 600.515H472.8V623.403ZM489.496 623.403V615.267H488.182C485.783 615.267 483.89 614.606 482.503 613.281C481.125 611.956 480.436 610.178 480.436 607.946C480.436 605.724 481.13 603.953 482.517 602.628C483.904 601.293 485.799 600.625 488.198 600.625H492.407V623.403H489.496ZM505.175 623.403V615.267H503.861C501.46 615.267 499.567 614.606 498.18 613.281C496.805 611.956 496.116 610.178 496.116 607.946C496.116 605.724 496.809 603.953 498.196 602.628C499.583 601.293 501.476 600.625 503.875 600.625H508.085V623.403H505.175ZM33.1002 660.936V652.8H31.7859C29.3868 652.8 27.4934 652.138 26.1061 650.813C24.729 649.488 24.0405 647.71 24.0405 645.479C24.0405 643.256 24.7343 641.485 26.1216 640.16C27.509 638.826 29.4024 638.158 31.8017 638.158H36.0106V660.936H33.1002ZM48.7788 660.936V652.8H47.4643C45.0652 652.8 43.1718 652.138 41.7845 650.813C40.4074 649.488 39.7189 647.71 39.7189 645.479C39.7189 643.256 40.4127 641.485 41.8 640.16C43.1874 638.826 45.0808 638.158 47.4801 638.158H51.689V660.936H48.7788ZM68.7445 663.297H54.4117V660.936H68.7445V663.297ZM83.2024 663.297H68.8697V660.936H83.2024V663.297ZM97.6604 663.297H83.3276V660.936H97.6604V663.297ZM112.118 663.297H97.7856V660.936H112.118V663.297ZM126.576 663.297H112.244V660.936H126.576V663.297ZM141.034 663.297H126.701V660.936H141.034V663.297ZM151.205 660.936V652.8H149.891C147.491 652.8 145.598 652.138 144.211 650.813C142.834 649.488 142.145 647.71 142.145 645.479C142.145 643.256 142.839 641.485 144.226 640.16C145.614 638.826 147.507 638.158 149.906 638.158H154.115V660.936H151.205ZM166.883 660.936V652.8H165.569C163.17 652.8 161.277 652.138 159.889 650.813C158.512 649.488 157.824 647.71 157.824 645.479C157.824 643.256 158.517 641.485 159.905 640.16C161.292 638.826 163.186 638.158 165.585 638.158H169.794V660.936H166.883ZM182.562 660.936V652.8H181.247C178.848 652.8 176.955 652.138 175.568 650.813C174.191 649.488 173.502 647.71 173.502 645.479C173.502 643.256 174.196 641.485 175.583 640.16C176.971 638.826 178.864 638.158 181.263 638.158H185.472V660.936H182.562ZM198.24 660.936V652.8H196.926C194.527 652.8 192.633 652.138 191.246 650.813C189.869 649.488 189.181 647.71 189.181 645.479C189.181 643.256 189.874 641.485 191.262 640.16C192.649 638.826 194.542 638.158 196.941 638.158H201.151V660.936H198.24ZM213.919 660.936V652.8H212.604C210.205 652.8 208.312 652.138 206.925 650.813C205.547 649.488 204.859 647.71 204.859 645.479C204.859 643.256 205.553 641.485 206.94 640.16C208.327 638.826 210.221 638.158 212.62 638.158H216.829V660.936H213.919ZM233.884 663.297H219.552V660.936H233.884V663.297ZM248.343 663.297H234.01V660.936H248.343V663.297ZM262.8 663.297H248.467V660.936H262.8V663.297ZM277.26 663.297H262.926V660.936H277.26V663.297ZM291.717 663.297H277.383V660.936H291.717V663.297ZM306.174 663.297H291.842V660.936H306.174V663.297ZM320.633 663.297H306.299V660.936H320.633V663.297ZM330.803 660.936V652.8H329.489C327.09 652.8 325.197 652.138 323.808 650.813C322.432 649.488 321.743 647.71 321.743 645.479C321.743 643.256 322.437 641.485 323.824 640.16C325.211 638.826 327.106 638.158 329.505 638.158H333.714V660.936H330.803ZM346.482 660.936V652.8H345.166C342.767 652.8 340.874 652.138 339.487 650.813C338.109 649.488 337.422 647.71 337.422 645.479C337.422 643.256 338.116 641.485 339.503 640.16C340.89 638.826 342.783 638.158 345.182 638.158H349.391V660.936H346.482ZM362.159 660.936V652.8H360.845C358.446 652.8 356.553 652.138 355.166 650.813C353.788 649.488 353.099 647.71 353.099 645.479C353.099 643.256 353.793 641.485 355.18 640.16C356.569 638.826 358.462 638.158 360.861 638.158H365.071V660.936H362.159ZM377.838 660.936V652.8H376.525C374.126 652.8 372.231 652.138 370.843 650.813C369.468 649.488 368.779 647.71 368.779 645.479C368.779 643.256 369.472 641.485 370.859 640.16C372.247 638.826 374.139 638.158 376.541 638.158H380.748V660.936H377.838ZM397.805 663.297H383.472V660.936H397.805V663.297ZM412.262 663.297H397.929V660.936H412.262V663.297ZM426.719 663.297H412.388V660.936H426.719V663.297ZM436.891 660.936V652.8H435.577C433.176 652.8 431.283 652.138 429.896 650.813C428.52 649.488 427.831 647.71 427.831 645.479C427.831 643.256 428.525 641.485 429.912 640.16C431.299 638.826 433.192 638.158 435.591 638.158H439.8V660.936H436.891ZM452.568 660.936V652.8H451.254C448.856 652.8 446.963 652.138 445.575 650.813C444.198 649.488 443.509 647.71 443.509 645.479C443.509 643.256 444.202 641.485 445.591 640.16C446.979 638.826 448.872 638.158 451.27 638.158H455.48V660.936H452.568ZM468.248 660.936V652.8H466.934C464.535 652.8 462.64 652.138 461.253 650.813C459.877 649.488 459.188 647.71 459.188 645.479C459.188 643.256 459.881 641.485 461.269 640.16C462.656 638.826 464.549 638.158 466.95 638.158H471.157V660.936H468.248ZM483.927 660.936V652.8H482.611C480.212 652.8 478.319 652.138 476.932 650.813C475.554 649.488 474.867 647.71 474.867 645.479C474.867 643.256 475.561 641.485 476.948 640.16C478.335 638.826 480.228 638.158 482.627 638.158H486.836V660.936H483.927ZM499.604 660.936V652.8H498.29C495.891 652.8 493.998 652.138 492.611 650.813C491.233 649.488 490.544 647.71 490.544 645.479C490.544 643.256 491.238 641.485 492.625 640.16C494.012 638.826 495.907 638.158 498.306 638.158H502.515V660.936H499.604ZM515.283 660.936V652.8H513.969C511.568 652.8 509.675 652.138 508.288 650.813C506.913 649.488 506.224 647.71 506.224 645.479C506.224 643.256 506.917 641.485 508.304 640.16C509.691 638.826 511.584 638.158 513.983 638.158H518.193V660.936H515.283ZM41.049 698.468V690.332H39.7347C37.3354 690.332 35.4422 689.671 34.0547 688.346C32.6779 687.021 31.9894 685.242 31.9894 683.011C31.9894 680.789 32.6831 679.017 34.0705 677.692C35.4578 676.358 37.351 675.69 39.7503 675.69H43.9594V698.468H41.049ZM56.7275 698.468V690.332H55.4131C53.0139 690.332 51.1207 689.671 49.7331 688.346C48.3563 687.021 47.6678 685.242 47.6678 683.011C47.6678 680.789 48.3616 679.017 49.7489 677.692C51.1362 676.358 53.0296 675.69 55.4287 675.69H59.6379V698.468H56.7275ZM76.6933 700.83H62.3606V698.468H76.6933V700.83ZM91.1513 700.83H76.8185V698.468H91.1513V700.83ZM101.322 698.468V690.332H100.007C97.6082 690.332 95.715 689.671 94.3276 688.346C92.9506 687.021 92.2621 685.242 92.2621 683.011C92.2621 680.789 92.9559 679.017 94.3432 677.692C95.7305 676.358 97.624 675.69 100.023 675.69H104.232V698.468H101.322ZM117 698.468V690.332H115.686C113.287 690.332 111.393 689.671 110.006 688.346C108.629 687.021 107.941 685.242 107.941 683.011C107.941 680.789 108.634 679.017 110.022 677.692C111.409 676.358 113.302 675.69 115.702 675.69H119.911V698.468H117ZM132.679 698.468V690.332H131.364C128.965 690.332 127.072 689.671 125.684 688.346C124.307 687.021 123.619 685.242 123.619 683.011C123.619 680.789 124.313 679.017 125.7 677.692C127.087 676.358 128.981 675.69 131.38 675.69H135.589V698.468H132.679ZM148.357 698.468V690.332H147.043C144.644 690.332 142.75 689.671 141.363 688.346C139.986 687.021 139.298 685.242 139.298 683.011C139.298 680.789 139.991 679.017 141.378 677.692C142.766 676.358 144.659 675.69 147.059 675.69H151.267V698.468H148.357ZM195.831 698.468V690.332H194.516C192.117 690.332 190.224 689.671 188.836 688.346C187.459 687.021 186.771 685.242 186.771 683.011C186.771 680.789 187.465 679.017 188.852 677.692C190.239 676.358 192.133 675.69 194.532 675.69H198.741V698.468H195.831ZM211.509 698.468V690.332H210.195C207.795 690.332 205.902 689.671 204.515 688.346C203.138 687.021 202.449 685.242 202.449 683.011C202.449 680.789 203.143 679.017 204.531 677.692C205.918 676.358 207.811 675.69 210.21 675.69H214.419V698.468H211.509ZM227.187 698.468V690.332H225.873C223.474 690.332 221.581 689.671 220.193 688.346C218.816 687.021 218.128 685.242 218.128 683.011C218.128 680.789 218.822 679.017 220.209 677.692C221.596 676.358 223.49 675.69 225.889 675.69H230.098V698.468H227.187ZM242.866 698.468V690.332H241.552C239.153 690.332 237.26 689.671 235.871 688.346C234.495 687.021 233.806 685.242 233.806 683.011C233.806 680.789 234.5 679.017 235.887 677.692C237.274 676.358 239.169 675.69 241.568 675.69H245.777V698.468H242.866ZM258.545 698.468V690.332H257.231C254.83 690.332 252.937 689.671 251.55 688.346C250.174 687.021 249.485 685.242 249.485 683.011C249.485 680.789 250.179 679.017 251.566 677.692C252.953 676.358 254.846 675.69 257.245 675.69H261.454V698.468H258.545ZM274.222 698.468V690.332H272.908C270.509 690.332 268.616 689.671 267.229 688.346C265.851 687.021 265.162 685.242 265.162 683.011C265.162 680.789 265.856 679.017 267.245 677.692C268.632 676.358 270.525 675.69 272.924 675.69H277.134V698.468H274.222ZM289.901 698.468V690.332H288.588C286.189 690.332 284.293 689.671 282.906 688.346C281.531 687.021 280.842 685.242 280.842 683.011C280.842 680.789 281.535 679.017 282.922 677.692C284.309 676.358 286.202 675.69 288.604 675.69H292.811V698.468H289.901ZM305.581 698.468V690.332H304.265C301.866 690.332 299.973 689.671 298.586 688.346C297.208 687.021 296.521 685.242 296.521 683.011C296.521 680.789 297.215 679.017 298.602 677.692C299.989 676.358 301.882 675.69 304.281 675.69H308.49V698.468H305.581ZM321.258 698.468V690.332H319.944C317.545 690.332 315.652 689.671 314.265 688.346C312.887 687.021 312.198 685.242 312.198 683.011C312.198 680.789 312.892 679.017 314.279 677.692C315.666 676.358 317.561 675.69 319.96 675.69H324.169V698.468H321.258ZM352.834 698.468V690.332H351.52C349.121 690.332 347.228 689.671 345.839 688.346C344.463 687.021 343.774 685.242 343.774 683.011C343.774 680.789 344.468 679.017 345.855 677.692C347.242 676.358 349.137 675.69 351.536 675.69H355.745V698.468H352.834ZM368.513 698.468V690.332H367.197C364.798 690.332 362.905 689.671 361.518 688.346C360.14 687.021 359.454 685.242 359.454 683.011C359.454 680.789 360.147 679.017 361.534 677.692C362.921 676.358 364.814 675.69 367.213 675.69H371.423V698.468H368.513ZM384.19 698.468V690.332H382.876C380.478 690.332 378.585 689.671 377.198 688.346C375.82 687.021 375.131 685.242 375.131 683.011C375.131 680.789 375.824 679.017 377.211 677.692C378.601 676.358 380.494 675.69 382.892 675.69H387.102V698.468H384.19ZM399.87 698.468V690.332H398.556C396.157 690.332 394.262 689.671 392.875 688.346C391.499 687.021 390.81 685.242 390.81 683.011C390.81 680.789 391.503 679.017 392.891 677.692C394.278 676.358 396.171 675.69 398.572 675.69H402.779V698.468H399.87ZM419.836 700.83H405.503V698.468H419.836V700.83ZM434.293 700.83H419.96V698.468H434.293V700.83ZM448.75 700.83H434.419V698.468H448.75V700.83ZM458.922 698.468V690.332H457.608C455.207 690.332 453.314 689.671 451.927 688.346C450.552 687.021 449.863 685.242 449.863 683.011C449.863 680.789 450.556 679.017 451.943 677.692C453.33 676.358 455.223 675.69 457.622 675.69H461.832V698.468H458.922ZM474.599 698.468V690.332H473.286C470.887 690.332 468.994 689.671 467.607 688.346C466.229 687.021 465.54 685.242 465.54 683.011C465.54 680.789 466.233 679.017 467.623 677.692C469.01 676.358 470.903 675.69 473.302 675.69H477.511V698.468H474.599ZM72.844 736V727.864H71.5297C69.1304 727.864 67.2372 727.203 65.8499 725.878C64.4728 724.553 63.7843 722.775 63.7843 720.543C63.7843 718.321 64.4781 716.55 65.8654 715.225C67.2528 713.89 69.1462 713.222 71.5452 713.222H75.7544V736H72.844ZM88.5224 736V727.864H87.2081C84.8088 727.864 82.9156 727.203 81.5283 725.878C80.1512 724.553 79.4627 722.775 79.4627 720.543C79.4627 718.321 80.1565 716.55 81.5438 715.225C82.9312 713.89 84.8246 713.222 87.2239 713.222H91.4328V736H88.5224ZM104.201 736V727.864H102.887C100.487 727.864 98.594 727.203 97.2067 725.878C95.8297 724.553 95.1411 722.775 95.1411 720.543C95.1411 718.321 95.8349 716.55 97.2223 715.225C98.6096 713.89 100.503 713.222 102.902 713.222H107.111V736H104.201ZM119.879 736V727.864H118.565C116.166 727.864 114.272 727.203 112.885 725.878C111.508 724.553 110.82 722.775 110.82 720.543C110.82 718.321 111.513 716.55 112.901 715.225C114.288 713.89 116.181 713.222 118.581 713.222H122.79V736H119.879ZM294.532 736V727.864H293.218C290.819 727.864 288.926 727.203 287.539 725.878C286.161 724.553 285.472 722.775 285.472 720.543C285.472 718.321 286.166 716.55 287.555 715.225C288.942 713.89 290.835 713.222 293.234 713.222H297.443V736H294.532ZM310.211 736V727.864H308.897C306.499 727.864 304.603 727.203 303.216 725.878C301.841 724.553 301.152 722.775 301.152 720.543C301.152 718.321 301.845 716.55 303.232 715.225C304.619 713.89 306.512 713.222 308.913 713.222H313.121V736H310.211ZM325.891 736V727.864H324.574C322.176 727.864 320.283 727.203 318.896 725.878C317.518 724.553 316.831 722.775 316.831 720.543C316.831 718.321 317.524 716.55 318.912 715.225C320.299 713.89 322.192 713.222 324.59 713.222H328.8V736H325.891ZM452.85 736V727.864H451.536C449.137 727.864 447.244 727.203 445.857 725.878C444.479 724.553 443.79 722.775 443.79 720.543C443.79 718.321 444.484 716.55 445.873 715.225C447.26 713.89 449.153 713.222 451.552 713.222H455.761V736H452.85ZM468.529 736V727.864H467.215C464.816 727.864 462.921 727.203 461.534 725.878C460.158 724.553 459.469 722.775 459.469 720.543C459.469 718.321 460.163 716.55 461.55 715.225C462.937 713.89 464.83 713.222 467.231 713.222H471.438V736H468.529ZM484.208 736V727.864H482.892C480.493 727.864 478.601 727.203 477.213 725.878C475.835 724.553 475.149 722.775 475.149 720.543C475.149 718.321 475.842 716.55 477.229 715.225C478.616 713.89 480.509 713.222 482.908 713.222H487.118V736H484.208ZM499.885 736V727.864H498.572C496.173 727.864 494.28 727.203 492.893 725.878C491.515 724.553 490.826 722.775 490.826 720.543C490.826 718.321 491.519 716.55 492.906 715.225C494.296 713.89 496.189 713.222 498.588 713.222H502.797V736H499.885ZM515.565 736V727.864H514.251C511.85 727.864 509.957 727.203 508.57 725.878C507.194 724.553 506.505 722.775 506.505 720.543C506.505 718.321 507.199 716.55 508.586 715.225C509.973 713.89 511.866 713.222 514.265 713.222H518.474V736H515.565Z" fill="#ECECEC"/>
</g>
<defs>
<clipPath id="clip0">
<rect width="545" height="736" fill="white"/>
</clipPath>
</defs>
</svg>
