<svg width="320" height="101" viewBox="0 0 320 101" fill="none" xmlns="http://www.w3.org/2000/svg">
<path d="M0.816406 15.3281C0.816406 13.0918 1.11426 10.9629 1.70996 8.94141C2.30566 6.91992 3.18457 5.13281 4.34668 3.58008C5.50879 2.01758 6.76855 0.933594 8.12598 0.328125L8.94629 2.61328C7.52051 3.66797 6.40723 5.29883 5.60645 7.50586C4.80566 9.71289 4.40527 12.291 4.40527 15.2402V15.6943C4.40527 18.6533 4.80078 21.2412 5.5918 23.458C6.38281 25.6748 7.50098 27.3301 8.94629 28.4238L8.12598 30.665C6.79785 30.0693 5.55762 29.0146 4.40527 27.501C3.2627 25.9971 2.38867 24.2588 1.7832 22.2861C1.17773 20.3135 0.855469 18.2529 0.816406 16.1045V15.3281ZM9.54688 2.67188H13.8682L22.7744 25.8311H18.4385L9.54688 2.67188ZM24.0488 21.9199C24.0488 21.2461 24.2734 20.6992 24.7227 20.2793C25.1816 19.8594 25.7529 19.6494 26.4365 19.6494C27.1299 19.6494 27.7012 19.8594 28.1504 20.2793C28.6094 20.6992 28.8389 21.2461 28.8389 21.9199C28.8389 22.584 28.6143 23.126 28.165 23.5459C27.7158 23.9561 27.1396 24.1611 26.4365 24.1611C25.7432 24.1611 25.1719 23.9561 24.7227 23.5459C24.2734 23.126 24.0488 22.584 24.0488 21.9199ZM32.7793 21.9199C32.7793 21.2461 33.0039 20.6992 33.4531 20.2793C33.9121 19.8594 34.4834 19.6494 35.167 19.6494C35.8604 19.6494 36.4316 19.8594 36.8809 20.2793C37.3398 20.6992 37.5693 21.2461 37.5693 21.9199C37.5693 22.584 37.3447 23.126 36.8955 23.5459C36.4463 23.9561 35.8701 24.1611 35.167 24.1611C34.4736 24.1611 33.9023 23.9561 33.4531 23.5459C33.0039 23.126 32.7793 22.584 32.7793 21.9199ZM41.5098 21.9199C41.5098 21.2461 41.7344 20.6992 42.1836 20.2793C42.6426 19.8594 43.2139 19.6494 43.8975 19.6494C44.5908 19.6494 45.1621 19.8594 45.6113 20.2793C46.0703 20.6992 46.2998 21.2461 46.2998 21.9199C46.2998 22.584 46.0752 23.126 45.626 23.5459C45.1768 23.9561 44.6006 24.1611 43.8975 24.1611C43.2041 24.1611 42.6328 23.9561 42.1836 23.5459C41.7344 23.126 41.5098 22.584 41.5098 21.9199ZM51.3535 25.8311H48.2041L56.0557 2.67188H59.2051L51.3535 25.8311ZM68.5361 15.665C68.5361 17.8721 68.2188 19.9961 67.584 22.0371C66.9492 24.0781 66.0361 25.8799 64.8447 27.4424C63.6533 29.0049 62.3789 30.0791 61.0215 30.665L60.2012 28.4238C61.5879 27.3789 62.6816 25.7676 63.4824 23.5898C64.2832 21.4121 64.6982 18.9072 64.7275 16.0752V15.2988C64.7275 12.3789 64.3271 9.80566 63.5264 7.5791C62.7354 5.35254 61.627 3.68262 60.2012 2.56934L61.0215 0.328125C62.3496 0.904297 63.5996 1.94922 64.7715 3.46289C65.9531 4.97656 66.8662 6.73926 67.5107 8.75098C68.165 10.7627 68.5068 12.8477 68.5361 15.0059V15.665ZM79.4785 15.3281C79.4785 13.0918 79.7764 10.9629 80.3721 8.94141C80.9678 6.91992 81.8467 5.13281 83.0088 3.58008C84.1709 2.01758 85.4307 0.933594 86.7881 0.328125L87.6084 2.61328C86.1826 3.66797 85.0693 5.29883 84.2686 7.50586C83.4678 9.71289 83.0674 12.291 83.0674 15.2402V15.6943C83.0674 18.6533 83.4629 21.2412 84.2539 23.458C85.0449 25.6748 86.1631 27.3301 87.6084 28.4238L86.7881 30.665C85.46 30.0693 84.2197 29.0146 83.0674 27.501C81.9248 25.9971 81.0508 24.2588 80.4453 22.2861C79.8398 20.3135 79.5176 18.2529 79.4785 16.1045V15.3281ZM88.209 2.67188H92.5303L101.437 25.8311H97.1006L88.209 2.67188ZM102.711 21.9199C102.711 21.2461 102.936 20.6992 103.385 20.2793C103.844 19.8594 104.415 19.6494 105.099 19.6494C105.792 19.6494 106.363 19.8594 106.812 20.2793C107.271 20.6992 107.501 21.2461 107.501 21.9199C107.501 22.584 107.276 23.126 106.827 23.5459C106.378 23.9561 105.802 24.1611 105.099 24.1611C104.405 24.1611 103.834 23.9561 103.385 23.5459C102.936 23.126 102.711 22.584 102.711 21.9199ZM111.441 21.9199C111.441 21.2461 111.666 20.6992 112.115 20.2793C112.574 19.8594 113.146 19.6494 113.829 19.6494C114.522 19.6494 115.094 19.8594 115.543 20.2793C116.002 20.6992 116.231 21.2461 116.231 21.9199C116.231 22.584 116.007 23.126 115.558 23.5459C115.108 23.9561 114.532 24.1611 113.829 24.1611C113.136 24.1611 112.564 23.9561 112.115 23.5459C111.666 23.126 111.441 22.584 111.441 21.9199ZM120.172 21.9199C120.172 21.2461 120.396 20.6992 120.846 20.2793C121.305 19.8594 121.876 19.6494 122.56 19.6494C123.253 19.6494 123.824 19.8594 124.273 20.2793C124.732 20.6992 124.962 21.2461 124.962 21.9199C124.962 22.584 124.737 23.126 124.288 23.5459C123.839 23.9561 123.263 24.1611 122.56 24.1611C121.866 24.1611 121.295 23.9561 120.846 23.5459C120.396 23.126 120.172 22.584 120.172 21.9199ZM130.016 25.8311H126.866L134.718 2.67188H137.867L130.016 25.8311ZM147.198 15.665C147.198 17.8721 146.881 19.9961 146.246 22.0371C145.611 24.0781 144.698 25.8799 143.507 27.4424C142.315 29.0049 141.041 30.0791 139.684 30.665L138.863 28.4238C140.25 27.3789 141.344 25.7676 142.145 23.5898C142.945 21.4121 143.36 18.9072 143.39 16.0752V15.2988C143.39 12.3789 142.989 9.80566 142.188 7.5791C141.397 5.35254 140.289 3.68262 138.863 2.56934L139.684 0.328125C141.012 0.904297 142.262 1.94922 143.434 3.46289C144.615 4.97656 145.528 6.73926 146.173 8.75098C146.827 10.7627 147.169 12.8477 147.198 15.0059V15.665ZM158.141 15.3281C158.141 13.0918 158.438 10.9629 159.034 8.94141C159.63 6.91992 160.509 5.13281 161.671 3.58008C162.833 2.01758 164.093 0.933594 165.45 0.328125L166.271 2.61328C164.845 3.66797 163.731 5.29883 162.931 7.50586C162.13 9.71289 161.729 12.291 161.729 15.2402V15.6943C161.729 18.6533 162.125 21.2412 162.916 23.458C163.707 25.6748 164.825 27.3301 166.271 28.4238L165.45 30.665C164.122 30.0693 162.882 29.0146 161.729 27.501C160.587 25.9971 159.713 24.2588 159.107 22.2861C158.502 20.3135 158.18 18.2529 158.141 16.1045V15.3281ZM166.871 2.67188H171.192L180.099 25.8311H175.763L166.871 2.67188ZM181.373 21.9199C181.373 21.2461 181.598 20.6992 182.047 20.2793C182.506 19.8594 183.077 19.6494 183.761 19.6494C184.454 19.6494 185.025 19.8594 185.475 20.2793C185.934 20.6992 186.163 21.2461 186.163 21.9199C186.163 22.584 185.938 23.126 185.489 23.5459C185.04 23.9561 184.464 24.1611 183.761 24.1611C183.067 24.1611 182.496 23.9561 182.047 23.5459C181.598 23.126 181.373 22.584 181.373 21.9199ZM190.104 21.9199C190.104 21.2461 190.328 20.6992 190.777 20.2793C191.236 19.8594 191.808 19.6494 192.491 19.6494C193.185 19.6494 193.756 19.8594 194.205 20.2793C194.664 20.6992 194.894 21.2461 194.894 21.9199C194.894 22.584 194.669 23.126 194.22 23.5459C193.771 23.9561 193.194 24.1611 192.491 24.1611C191.798 24.1611 191.227 23.9561 190.777 23.5459C190.328 23.126 190.104 22.584 190.104 21.9199ZM198.834 21.9199C198.834 21.2461 199.059 20.6992 199.508 20.2793C199.967 19.8594 200.538 19.6494 201.222 19.6494C201.915 19.6494 202.486 19.8594 202.936 20.2793C203.395 20.6992 203.624 21.2461 203.624 21.9199C203.624 22.584 203.399 23.126 202.95 23.5459C202.501 23.9561 201.925 24.1611 201.222 24.1611C200.528 24.1611 199.957 23.9561 199.508 23.5459C199.059 23.126 198.834 22.584 198.834 21.9199ZM208.678 25.8311H205.528L213.38 2.67188H216.529L208.678 25.8311ZM225.86 15.665C225.86 17.8721 225.543 19.9961 224.908 22.0371C224.273 24.0781 223.36 25.8799 222.169 27.4424C220.978 29.0049 219.703 30.0791 218.346 30.665L217.525 28.4238C218.912 27.3789 220.006 25.7676 220.807 23.5898C221.607 21.4121 222.022 18.9072 222.052 16.0752V15.2988C222.052 12.3789 221.651 9.80566 220.851 7.5791C220.06 5.35254 218.951 3.68262 217.525 2.56934L218.346 0.328125C219.674 0.904297 220.924 1.94922 222.096 3.46289C223.277 4.97656 224.19 6.73926 224.835 8.75098C225.489 10.7627 225.831 12.8477 225.86 15.0059V15.665ZM236.803 15.3281C236.803 13.0918 237.101 10.9629 237.696 8.94141C238.292 6.91992 239.171 5.13281 240.333 3.58008C241.495 2.01758 242.755 0.933594 244.112 0.328125L244.933 2.61328C243.507 3.66797 242.394 5.29883 241.593 7.50586C240.792 9.71289 240.392 12.291 240.392 15.2402V15.6943C240.392 18.6533 240.787 21.2412 241.578 23.458C242.369 25.6748 243.487 27.3301 244.933 28.4238L244.112 30.665C242.784 30.0693 241.544 29.0146 240.392 27.501C239.249 25.9971 238.375 24.2588 237.77 22.2861C237.164 20.3135 236.842 18.2529 236.803 16.1045V15.3281ZM245.533 2.67188H249.854L258.761 25.8311H254.425L245.533 2.67188ZM260.035 21.9199C260.035 21.2461 260.26 20.6992 260.709 20.2793C261.168 19.8594 261.739 19.6494 262.423 19.6494C263.116 19.6494 263.688 19.8594 264.137 20.2793C264.596 20.6992 264.825 21.2461 264.825 21.9199C264.825 22.584 264.601 23.126 264.151 23.5459C263.702 23.9561 263.126 24.1611 262.423 24.1611C261.729 24.1611 261.158 23.9561 260.709 23.5459C260.26 23.126 260.035 22.584 260.035 21.9199ZM268.766 21.9199C268.766 21.2461 268.99 20.6992 269.439 20.2793C269.898 19.8594 270.47 19.6494 271.153 19.6494C271.847 19.6494 272.418 19.8594 272.867 20.2793C273.326 20.6992 273.556 21.2461 273.556 21.9199C273.556 22.584 273.331 23.126 272.882 23.5459C272.433 23.9561 271.856 24.1611 271.153 24.1611C270.46 24.1611 269.889 23.9561 269.439 23.5459C268.99 23.126 268.766 22.584 268.766 21.9199ZM277.496 21.9199C277.496 21.2461 277.721 20.6992 278.17 20.2793C278.629 19.8594 279.2 19.6494 279.884 19.6494C280.577 19.6494 281.148 19.8594 281.598 20.2793C282.057 20.6992 282.286 21.2461 282.286 21.9199C282.286 22.584 282.062 23.126 281.612 23.5459C281.163 23.9561 280.587 24.1611 279.884 24.1611C279.19 24.1611 278.619 23.9561 278.17 23.5459C277.721 23.126 277.496 22.584 277.496 21.9199ZM287.34 25.8311H284.19L292.042 2.67188H295.191L287.34 25.8311ZM304.522 15.665C304.522 17.8721 304.205 19.9961 303.57 22.0371C302.936 24.0781 302.022 25.8799 300.831 27.4424C299.64 29.0049 298.365 30.0791 297.008 30.665L296.188 28.4238C297.574 27.3789 298.668 25.7676 299.469 23.5898C300.27 21.4121 300.685 18.9072 300.714 16.0752V15.2988C300.714 12.3789 300.313 9.80566 299.513 7.5791C298.722 5.35254 297.613 3.68262 296.188 2.56934L297.008 0.328125C298.336 0.904297 299.586 1.94922 300.758 3.46289C301.939 4.97656 302.853 6.73926 303.497 8.75098C304.151 10.7627 304.493 12.8477 304.522 15.0059V15.665ZM0.816406 50.3281C0.816406 48.0918 1.11426 45.9629 1.70996 43.9414C2.30566 41.9199 3.18457 40.1328 4.34668 38.5801C5.50879 37.0176 6.76855 35.9336 8.12598 35.3281L8.94629 37.6133C7.52051 38.668 6.40723 40.2988 5.60645 42.5059C4.80566 44.7129 4.40527 47.291 4.40527 50.2402V50.6943C4.40527 53.6533 4.80078 56.2412 5.5918 58.458C6.38281 60.6748 7.50098 62.3301 8.94629 63.4238L8.12598 65.665C6.79785 65.0693 5.55762 64.0146 4.40527 62.501C3.2627 60.9971 2.38867 59.2588 1.7832 57.2861C1.17773 55.3135 0.855469 53.2529 0.816406 51.1045V50.3281ZM22.0127 44.9082L17.4131 43.6045L18.2773 40.9531L22.833 42.7842L22.54 37.6719H25.4111L25.1182 42.8867L29.5566 41.085L30.4209 43.7656L25.7334 45.0693L28.8096 48.9658L26.4805 50.6211L23.8145 46.3438L21.1777 50.4746L18.8486 48.8926L22.0127 44.9082ZM32.457 56.9199C32.457 56.2461 32.6816 55.6992 33.1309 55.2793C33.5898 54.8594 34.1611 54.6494 34.8447 54.6494C35.5381 54.6494 36.1094 54.8594 36.5586 55.2793C37.0176 55.6992 37.2471 56.2461 37.2471 56.9199C37.2471 57.584 37.0225 58.126 36.5732 58.5459C36.124 58.9561 35.5479 59.1611 34.8447 59.1611C34.1514 59.1611 33.5801 58.9561 33.1309 58.5459C32.6816 58.126 32.457 57.584 32.457 56.9199ZM44.3369 44.9082L39.7373 43.6045L40.6016 40.9531L45.1572 42.7842L44.8643 37.6719H47.7354L47.4424 42.8867L51.8809 41.085L52.7451 43.7656L48.0576 45.0693L51.1338 48.9658L48.8047 50.6211L46.1387 46.3438L43.502 50.4746L41.1729 48.8926L44.3369 44.9082ZM61.8564 50.665C61.8564 52.8721 61.5391 54.9961 60.9043 57.0371C60.2695 59.0781 59.3564 60.8799 58.165 62.4424C56.9736 64.0049 55.6992 65.0791 54.3418 65.665L53.5215 63.4238C54.9082 62.3789 56.002 60.7676 56.8027 58.5898C57.6035 56.4121 58.0186 53.9072 58.0479 51.0752V50.2988C58.0479 47.3789 57.6475 44.8057 56.8467 42.5791C56.0557 40.3525 54.9473 38.6826 53.5215 37.5693L54.3418 35.3281C55.6699 35.9043 56.9199 36.9492 58.0918 38.4629C59.2734 39.9766 60.1865 41.7393 60.8311 43.751C61.4854 45.7627 61.8271 47.8477 61.8564 50.0059V50.665ZM87.7402 50.3281C87.7402 48.0918 88.0381 45.9629 88.6338 43.9414C89.2295 41.9199 90.1084 40.1328 91.2705 38.5801C92.4326 37.0176 93.6924 35.9336 95.0498 35.3281L95.8701 37.6133C94.4443 38.668 93.3311 40.2988 92.5303 42.5059C91.7295 44.7129 91.3291 47.291 91.3291 50.2402V50.6943C91.3291 53.6533 91.7246 56.2412 92.5156 58.458C93.3066 60.6748 94.4248 62.3301 95.8701 63.4238L95.0498 65.665C93.7217 65.0693 92.4814 64.0146 91.3291 62.501C90.1865 60.9971 89.3125 59.2588 88.707 57.2861C88.1016 55.3135 87.7793 53.2529 87.7402 51.1045V50.3281ZM100.499 38.6533L100.074 44.5713H97.3936V36.5H100.499V38.6533ZM103.18 56.9199C103.18 56.2461 103.404 55.6992 103.854 55.2793C104.312 54.8594 104.884 54.6494 105.567 54.6494C106.261 54.6494 106.832 54.8594 107.281 55.2793C107.74 55.6992 107.97 56.2461 107.97 56.9199C107.97 57.584 107.745 58.126 107.296 58.5459C106.847 58.9561 106.271 59.1611 105.567 59.1611C104.874 59.1611 104.303 58.9561 103.854 58.5459C103.404 58.126 103.18 57.584 103.18 56.9199ZM109.903 38.6533L109.479 44.5713H106.798V36.5H109.903V38.6533ZM125.826 48.0723H112.73V44.6152H125.826V48.0723ZM125.826 54.415H112.73V50.958H125.826V54.415ZM144.298 50.665C144.298 52.8721 143.98 54.9961 143.346 57.0371C142.711 59.0781 141.798 60.8799 140.606 62.4424C139.415 64.0049 138.141 65.0791 136.783 65.665L135.963 63.4238C137.35 62.3789 138.443 60.7676 139.244 58.5898C140.045 56.4121 140.46 53.9072 140.489 51.0752V50.2988C140.489 47.3789 140.089 44.8057 139.288 42.5791C138.497 40.3525 137.389 38.6826 135.963 37.5693L136.783 35.3281C138.111 35.9043 139.361 36.9492 140.533 38.4629C141.715 39.9766 142.628 41.7393 143.272 43.751C143.927 45.7627 144.269 47.8477 144.298 50.0059V50.665ZM162.711 50.3281C162.711 48.0918 163.009 45.9629 163.604 43.9414C164.2 41.9199 165.079 40.1328 166.241 38.5801C167.403 37.0176 168.663 35.9336 170.021 35.3281L170.841 37.6133C169.415 38.668 168.302 40.2988 167.501 42.5059C166.7 44.7129 166.3 47.291 166.3 50.2402V50.6943C166.3 53.6533 166.695 56.2412 167.486 58.458C168.277 60.6748 169.396 62.3301 170.841 63.4238L170.021 65.665C168.692 65.0693 167.452 64.0146 166.3 62.501C165.157 60.9971 164.283 59.2588 163.678 57.2861C163.072 55.3135 162.75 53.2529 162.711 51.1045V50.3281ZM175.47 38.6533L175.045 44.5713H172.364V36.5H175.47V38.6533ZM178.15 56.9199C178.15 56.2461 178.375 55.6992 178.824 55.2793C179.283 54.8594 179.854 54.6494 180.538 54.6494C181.231 54.6494 181.803 54.8594 182.252 55.2793C182.711 55.6992 182.94 56.2461 182.94 56.9199C182.94 57.584 182.716 58.126 182.267 58.5459C181.817 58.9561 181.241 59.1611 180.538 59.1611C179.845 59.1611 179.273 58.9561 178.824 58.5459C178.375 58.126 178.15 57.584 178.15 56.9199ZM184.874 38.6533L184.449 44.5713H181.769V36.5H184.874V38.6533ZM200.797 48.0723H187.701V44.6152H200.797V48.0723ZM200.797 54.415H187.701V50.958H200.797V54.415ZM219.269 50.665C219.269 52.8721 218.951 54.9961 218.316 57.0371C217.682 59.0781 216.769 60.8799 215.577 62.4424C214.386 64.0049 213.111 65.0791 211.754 65.665L210.934 63.4238C212.32 62.3789 213.414 60.7676 214.215 58.5898C215.016 56.4121 215.431 53.9072 215.46 51.0752V50.2988C215.46 47.3789 215.06 44.8057 214.259 42.5791C213.468 40.3525 212.359 38.6826 210.934 37.5693L211.754 35.3281C213.082 35.9043 214.332 36.9492 215.504 38.4629C216.686 39.9766 217.599 41.7393 218.243 43.751C218.897 45.7627 219.239 47.8477 219.269 50.0059V50.665ZM237.682 50.3281C237.682 48.0918 237.979 45.9629 238.575 43.9414C239.171 41.9199 240.05 40.1328 241.212 38.5801C242.374 37.0176 243.634 35.9336 244.991 35.3281L245.812 37.6133C244.386 38.668 243.272 40.2988 242.472 42.5059C241.671 44.7129 241.271 47.291 241.271 50.2402V50.6943C241.271 53.6533 241.666 56.2412 242.457 58.458C243.248 60.6748 244.366 62.3301 245.812 63.4238L244.991 65.665C243.663 65.0693 242.423 64.0146 241.271 62.501C240.128 60.9971 239.254 59.2588 238.648 57.2861C238.043 55.3135 237.721 53.2529 237.682 51.1045V50.3281ZM250.44 38.6533L250.016 44.5713H247.335V36.5H250.44V38.6533ZM253.121 56.9199C253.121 56.2461 253.346 55.6992 253.795 55.2793C254.254 54.8594 254.825 54.6494 255.509 54.6494C256.202 54.6494 256.773 54.8594 257.223 55.2793C257.682 55.6992 257.911 56.2461 257.911 56.9199C257.911 57.584 257.687 58.126 257.237 58.5459C256.788 58.9561 256.212 59.1611 255.509 59.1611C254.815 59.1611 254.244 58.9561 253.795 58.5459C253.346 58.126 253.121 57.584 253.121 56.9199ZM259.845 38.6533L259.42 44.5713H256.739V36.5H259.845V38.6533ZM275.768 48.0723H262.672V44.6152H275.768V48.0723ZM275.768 54.415H262.672V50.958H275.768V54.415ZM294.239 50.665C294.239 52.8721 293.922 54.9961 293.287 57.0371C292.652 59.0781 291.739 60.8799 290.548 62.4424C289.356 64.0049 288.082 65.0791 286.725 65.665L285.904 63.4238C287.291 62.3789 288.385 60.7676 289.186 58.5898C289.986 56.4121 290.401 53.9072 290.431 51.0752V50.2988C290.431 47.3789 290.03 44.8057 289.229 42.5791C288.438 40.3525 287.33 38.6826 285.904 37.5693L286.725 35.3281C288.053 35.9043 289.303 36.9492 290.475 38.4629C291.656 39.9766 292.569 41.7393 293.214 43.751C293.868 45.7627 294.21 47.8477 294.239 50.0059V50.665ZM0.816406 85.3281C0.816406 83.0918 1.11426 80.9629 1.70996 78.9414C2.30566 76.9199 3.18457 75.1328 4.34668 73.5801C5.50879 72.0176 6.76855 70.9336 8.12598 70.3281L8.94629 72.6133C7.52051 73.668 6.40723 75.2988 5.60645 77.5059C4.80566 79.7129 4.40527 82.291 4.40527 85.2402V85.6943C4.40527 88.6533 4.80078 91.2412 5.5918 93.458C6.38281 95.6748 7.50098 97.3301 8.94629 98.4238L8.12598 100.665C6.79785 100.069 5.55762 99.0146 4.40527 97.501C3.2627 95.9971 2.38867 94.2588 1.7832 92.2861C1.17773 90.3135 0.855469 88.2529 0.816406 86.1045V85.3281ZM13.4434 73.5215L12.8574 79.542H10.4844V71.5H13.4434V73.5215ZM18.2041 73.5215L17.6328 79.542H15.2598V71.5H18.2041V73.5215ZM28.1064 85.665C28.1064 87.8721 27.7891 89.9961 27.1543 92.0371C26.5195 94.0781 25.6064 95.8799 24.415 97.4424C23.2236 99.0049 21.9492 100.079 20.5918 100.665L19.7715 98.4238C21.1582 97.3789 22.252 95.7676 23.0527 93.5898C23.8535 91.4121 24.2686 88.9072 24.2979 86.0752V85.2988C24.2979 82.3789 23.8975 79.8057 23.0967 77.5791C22.3057 75.3525 21.1973 73.6826 19.7715 72.5693L20.5918 70.3281C21.9199 70.9043 23.1699 71.9492 24.3418 73.4629C25.5234 74.9766 26.4365 76.7393 27.0811 78.751C27.7354 80.7627 28.0771 82.8477 28.1064 85.0059V85.665ZM43.1211 97.3105H29.7764V94H43.1211V97.3105ZM44.9668 85.3281C44.9668 83.0918 45.2646 80.9629 45.8604 78.9414C46.4561 76.9199 47.335 75.1328 48.4971 73.5801C49.6592 72.0176 50.9189 70.9336 52.2764 70.3281L53.0967 72.6133C51.6709 73.668 50.5576 75.2988 49.7568 77.5059C48.9561 79.7129 48.5557 82.291 48.5557 85.2402V85.6943C48.5557 88.6533 48.9512 91.2412 49.7422 93.458C50.5332 95.6748 51.6514 97.3301 53.0967 98.4238L52.2764 100.665C50.9482 100.069 49.708 99.0146 48.5557 97.501C47.4131 95.9971 46.5391 94.2588 45.9336 92.2861C45.3281 90.3135 45.0059 88.2529 44.9668 86.1045V85.3281ZM57.5938 73.5215L57.0078 79.542H54.6348V71.5H57.5938V73.5215ZM62.3545 73.5215L61.7832 79.542H59.4102V71.5H62.3545V73.5215ZM72.2568 85.665C72.2568 87.8721 71.9395 89.9961 71.3047 92.0371C70.6699 94.0781 69.7568 95.8799 68.5654 97.4424C67.374 99.0049 66.0996 100.079 64.7422 100.665L63.9219 98.4238C65.3086 97.3789 66.4023 95.7676 67.2031 93.5898C68.0039 91.4121 68.4189 88.9072 68.4482 86.0752V85.2988C68.4482 82.3789 68.0479 79.8057 67.2471 77.5791C66.4561 75.3525 65.3477 73.6826 63.9219 72.5693L64.7422 70.3281C66.0703 70.9043 67.3203 71.9492 68.4922 73.4629C69.6738 74.9766 70.5869 76.7393 71.2314 78.751C71.8857 80.7627 72.2275 82.8477 72.2568 85.0059V85.665ZM83.1992 85.3281C83.1992 83.0918 83.4971 80.9629 84.0928 78.9414C84.6885 76.9199 85.5674 75.1328 86.7295 73.5801C87.8916 72.0176 89.1514 70.9336 90.5088 70.3281L91.3291 72.6133C89.9033 73.668 88.79 75.2988 87.9893 77.5059C87.1885 79.7129 86.7881 82.291 86.7881 85.2402V85.6943C86.7881 88.6533 87.1836 91.2412 87.9746 93.458C88.7656 95.6748 89.8838 97.3301 91.3291 98.4238L90.5088 100.665C89.1807 100.069 87.9404 99.0146 86.7881 97.501C85.6455 95.9971 84.7715 94.2588 84.166 92.2861C83.5605 90.3135 83.2383 88.2529 83.1992 86.1045V85.3281ZM95.8262 73.5215L95.2402 79.542H92.8672V71.5H95.8262V73.5215ZM100.587 73.5215L100.016 79.542H97.6426V71.5H100.587V73.5215ZM110.489 85.665C110.489 87.8721 110.172 89.9961 109.537 92.0371C108.902 94.0781 107.989 95.8799 106.798 97.4424C105.606 99.0049 104.332 100.079 102.975 100.665L102.154 98.4238C103.541 97.3789 104.635 95.7676 105.436 93.5898C106.236 91.4121 106.651 88.9072 106.681 86.0752V85.2988C106.681 82.3789 106.28 79.8057 105.479 77.5791C104.688 75.3525 103.58 73.6826 102.154 72.5693L102.975 70.3281C104.303 70.9043 105.553 71.9492 106.725 73.4629C107.906 74.9766 108.819 76.7393 109.464 78.751C110.118 80.7627 110.46 82.8477 110.489 85.0059V85.665ZM125.504 97.3105H112.159V94H125.504V97.3105ZM127.35 85.3281C127.35 83.0918 127.647 80.9629 128.243 78.9414C128.839 76.9199 129.718 75.1328 130.88 73.5801C132.042 72.0176 133.302 70.9336 134.659 70.3281L135.479 72.6133C134.054 73.668 132.94 75.2988 132.14 77.5059C131.339 79.7129 130.938 82.291 130.938 85.2402V85.6943C130.938 88.6533 131.334 91.2412 132.125 93.458C132.916 95.6748 134.034 97.3301 135.479 98.4238L134.659 100.665C133.331 100.069 132.091 99.0146 130.938 97.501C129.796 95.9971 128.922 94.2588 128.316 92.2861C127.711 90.3135 127.389 88.2529 127.35 86.1045V85.3281ZM139.977 73.5215L139.391 79.542H137.018V71.5H139.977V73.5215ZM144.737 73.5215L144.166 79.542H141.793V71.5H144.737V73.5215ZM154.64 85.665C154.64 87.8721 154.322 89.9961 153.688 92.0371C153.053 94.0781 152.14 95.8799 150.948 97.4424C149.757 99.0049 148.482 100.079 147.125 100.665L146.305 98.4238C147.691 97.3789 148.785 95.7676 149.586 93.5898C150.387 91.4121 150.802 88.9072 150.831 86.0752V85.2988C150.831 82.3789 150.431 79.8057 149.63 77.5791C148.839 75.3525 147.73 73.6826 146.305 72.5693L147.125 70.3281C148.453 70.9043 149.703 71.9492 150.875 73.4629C152.057 74.9766 152.97 76.7393 153.614 78.751C154.269 80.7627 154.61 82.8477 154.64 85.0059V85.665ZM165.582 85.3281C165.582 83.0918 165.88 80.9629 166.476 78.9414C167.071 76.9199 167.95 75.1328 169.112 73.5801C170.274 72.0176 171.534 70.9336 172.892 70.3281L173.712 72.6133C172.286 73.668 171.173 75.2988 170.372 77.5059C169.571 79.7129 169.171 82.291 169.171 85.2402V85.6943C169.171 88.6533 169.566 91.2412 170.357 93.458C171.148 95.6748 172.267 97.3301 173.712 98.4238L172.892 100.665C171.563 100.069 170.323 99.0146 169.171 97.501C168.028 95.9971 167.154 94.2588 166.549 92.2861C165.943 90.3135 165.621 88.2529 165.582 86.1045V85.3281ZM178.209 73.5215L177.623 79.542H175.25V71.5H178.209V73.5215ZM182.97 73.5215L182.398 79.542H180.025V71.5H182.97V73.5215ZM192.872 85.665C192.872 87.8721 192.555 89.9961 191.92 92.0371C191.285 94.0781 190.372 95.8799 189.181 97.4424C187.989 99.0049 186.715 100.079 185.357 100.665L184.537 98.4238C185.924 97.3789 187.018 95.7676 187.818 93.5898C188.619 91.4121 189.034 88.9072 189.063 86.0752V85.2988C189.063 82.3789 188.663 79.8057 187.862 77.5791C187.071 75.3525 185.963 73.6826 184.537 72.5693L185.357 70.3281C186.686 70.9043 187.936 71.9492 189.107 73.4629C190.289 74.9766 191.202 76.7393 191.847 78.751C192.501 80.7627 192.843 82.8477 192.872 85.0059V85.665ZM207.887 97.3105H194.542V94H207.887V97.3105ZM209.732 85.3281C209.732 83.0918 210.03 80.9629 210.626 78.9414C211.222 76.9199 212.101 75.1328 213.263 73.5801C214.425 72.0176 215.685 70.9336 217.042 70.3281L217.862 72.6133C216.437 73.668 215.323 75.2988 214.522 77.5059C213.722 79.7129 213.321 82.291 213.321 85.2402V85.6943C213.321 88.6533 213.717 91.2412 214.508 93.458C215.299 95.6748 216.417 97.3301 217.862 98.4238L217.042 100.665C215.714 100.069 214.474 99.0146 213.321 97.501C212.179 95.9971 211.305 94.2588 210.699 92.2861C210.094 90.3135 209.771 88.2529 209.732 86.1045V85.3281ZM222.359 73.5215L221.773 79.542H219.4V71.5H222.359V73.5215ZM227.12 73.5215L226.549 79.542H224.176V71.5H227.12V73.5215ZM237.022 85.665C237.022 87.8721 236.705 89.9961 236.07 92.0371C235.436 94.0781 234.522 95.8799 233.331 97.4424C232.14 99.0049 230.865 100.079 229.508 100.665L228.688 98.4238C230.074 97.3789 231.168 95.7676 231.969 93.5898C232.77 91.4121 233.185 88.9072 233.214 86.0752V85.2988C233.214 82.3789 232.813 79.8057 232.013 77.5791C231.222 75.3525 230.113 73.6826 228.688 72.5693L229.508 70.3281C230.836 70.9043 232.086 71.9492 233.258 73.4629C234.439 74.9766 235.353 76.7393 235.997 78.751C236.651 80.7627 236.993 82.8477 237.022 85.0059V85.665ZM247.965 85.3281C247.965 83.0918 248.263 80.9629 248.858 78.9414C249.454 76.9199 250.333 75.1328 251.495 73.5801C252.657 72.0176 253.917 70.9336 255.274 70.3281L256.095 72.6133C254.669 73.668 253.556 75.2988 252.755 77.5059C251.954 79.7129 251.554 82.291 251.554 85.2402V85.6943C251.554 88.6533 251.949 91.2412 252.74 93.458C253.531 95.6748 254.649 97.3301 256.095 98.4238L255.274 100.665C253.946 100.069 252.706 99.0146 251.554 97.501C250.411 95.9971 249.537 94.2588 248.932 92.2861C248.326 90.3135 248.004 88.2529 247.965 86.1045V85.3281ZM260.592 73.5215L260.006 79.542H257.633V71.5H260.592V73.5215ZM265.353 73.5215L264.781 79.542H262.408V71.5H265.353V73.5215ZM275.255 85.665C275.255 87.8721 274.938 89.9961 274.303 92.0371C273.668 94.0781 272.755 95.8799 271.563 97.4424C270.372 99.0049 269.098 100.079 267.74 100.665L266.92 98.4238C268.307 97.3789 269.4 95.7676 270.201 93.5898C271.002 91.4121 271.417 88.9072 271.446 86.0752V85.2988C271.446 82.3789 271.046 79.8057 270.245 77.5791C269.454 75.3525 268.346 73.6826 266.92 72.5693L267.74 70.3281C269.068 70.9043 270.318 71.9492 271.49 73.4629C272.672 74.9766 273.585 76.7393 274.229 78.751C274.884 80.7627 275.226 82.8477 275.255 85.0059V85.665ZM290.27 97.3105H276.925V94H290.27V97.3105ZM292.115 85.3281C292.115 83.0918 292.413 80.9629 293.009 78.9414C293.604 76.9199 294.483 75.1328 295.646 73.5801C296.808 72.0176 298.067 70.9336 299.425 70.3281L300.245 72.6133C298.819 73.668 297.706 75.2988 296.905 77.5059C296.104 79.7129 295.704 82.291 295.704 85.2402V85.6943C295.704 88.6533 296.1 91.2412 296.891 93.458C297.682 95.6748 298.8 97.3301 300.245 98.4238L299.425 100.665C298.097 100.069 296.856 99.0146 295.704 97.501C294.562 95.9971 293.688 94.2588 293.082 92.2861C292.477 90.3135 292.154 88.2529 292.115 86.1045V85.3281ZM304.742 73.5215L304.156 79.542H301.783V71.5H304.742V73.5215ZM309.503 73.5215L308.932 79.542H306.559V71.5H309.503V73.5215ZM319.405 85.665C319.405 87.8721 319.088 89.9961 318.453 92.0371C317.818 94.0781 316.905 95.8799 315.714 97.4424C314.522 99.0049 313.248 100.079 311.891 100.665L311.07 98.4238C312.457 97.3789 313.551 95.7676 314.352 93.5898C315.152 91.4121 315.567 88.9072 315.597 86.0752V85.2988C315.597 82.3789 315.196 79.8057 314.396 77.5791C313.604 75.3525 312.496 73.6826 311.07 72.5693L311.891 70.3281C313.219 70.9043 314.469 71.9492 315.641 73.4629C316.822 74.9766 317.735 76.7393 318.38 78.751C319.034 80.7627 319.376 82.8477 319.405 85.0059V85.665Z" fill="#ECECEC"/>
</svg>
